<svg width="77" height="97" viewBox="0 0 77 97" fill="none" xmlns="http://www.w3.org/2000/svg">
<path fill-rule="evenodd" clip-rule="evenodd" d="M46.5453 65.0158L63.8933 47.6678C64.7918 46.7694 66.2488 46.7694 67.1472 47.6678L75.7097 56.2303C76.6082 57.1287 76.6082 58.5858 75.7097 59.4842L39.8187 95.3752C38.9203 96.2736 37.4632 96.2736 36.5648 95.3752L0.67383 59.4842C-0.22461 58.5858 -0.22461 57.1287 0.67383 56.2303L9.23633 47.6678C10.1348 46.7694 11.5918 46.7694 12.4902 47.6678L29.8382 65.0158V2.3008C29.8382 1.0274 30.8694 0 32.139 0H44.244C45.5135 0 46.5448 1.0273 46.5448 2.3008L46.5453 65.0158Z" fill="black"/>
</svg>
