<svg width="276" height="276" viewBox="0 0 276 276" fill="none" xmlns="http://www.w3.org/2000/svg">
<rect x="141" y="141" width="135" height="135" fill="#072D47"/>
<rect y="141" width="135" height="135" fill="#098BA9"/>
<rect x="141" width="135" height="135" fill="#00BBEC"/>
<rect width="135" height="135" fill="#007386"/>
<g filter="url(#filter0_d_111_61)">
<rect width="219" height="219" transform="translate(28.5 28.5)" fill="white"/>
<path d="M57.4102 88.0234H94.2583C101.597 88.0234 107.947 89.1221 113.309 91.3193C118.714 93.5166 122.867 96.7686 125.767 101.075C128.667 105.382 130.118 110.699 130.118 117.027C130.118 122.301 129.261 126.783 127.547 130.475C125.833 134.166 123.416 137.22 120.296 139.637C117.22 142.054 113.616 144.01 109.485 145.504L102.498 149.327H71.1211L70.9893 132.65H94.3242C97.5322 132.65 100.191 132.079 102.3 130.936C104.41 129.793 105.992 128.189 107.046 126.124C108.145 124.015 108.694 121.554 108.694 118.741C108.694 115.841 108.145 113.336 107.046 111.227C105.948 109.117 104.322 107.513 102.168 106.415C100.059 105.272 97.4224 104.701 94.2583 104.701H78.8994V184H57.4102V88.0234ZM110.54 184L88.9849 141.351L111.661 141.285L133.545 183.011V184H110.54ZM185.75 142.538H161.096L160.965 128.167H181.333C184.937 128.167 187.859 127.728 190.1 126.849C192.386 125.97 194.055 124.696 195.11 123.026C196.165 121.312 196.692 119.203 196.692 116.698C196.692 113.841 196.165 111.534 195.11 109.776C194.055 108.019 192.386 106.744 190.1 105.953C187.859 105.118 184.959 104.701 181.399 104.701H168.875V184H147.386V88.0234H181.399C187.156 88.0234 192.298 88.5508 196.824 89.6055C201.35 90.6602 205.196 92.2861 208.36 94.4834C211.568 96.6807 214.007 99.4272 215.677 102.723C217.346 106.019 218.181 109.908 218.181 114.391C218.181 118.302 217.303 121.949 215.545 125.333C213.831 128.717 211.062 131.463 207.239 133.573C203.416 135.682 198.296 136.825 191.88 137L185.75 142.538ZM184.893 184H155.625L163.404 167.389H184.893C188.189 167.389 190.869 166.861 192.935 165.807C195 164.752 196.516 163.324 197.483 161.522C198.45 159.72 198.933 157.699 198.933 155.458C198.933 152.821 198.472 150.536 197.549 148.602C196.67 146.668 195.264 145.174 193.33 144.12C191.441 143.065 188.914 142.538 185.75 142.538H166.502L166.634 128.167H190.166L195.176 133.836C201.284 133.705 206.162 134.693 209.81 136.803C213.501 138.868 216.16 141.593 217.786 144.977C219.412 148.36 220.225 151.942 220.225 155.721C220.225 161.961 218.885 167.191 216.204 171.41C213.523 175.584 209.546 178.727 204.273 180.836C199.043 182.945 192.583 184 184.893 184Z" fill="#072D47"/>
</g>
<defs>
<filter id="filter0_d_111_61" x="26.6" y="26.6" width="230.8" height="230.8" filterUnits="userSpaceOnUse" color-interpolation-filters="sRGB">
<feFlood flood-opacity="0" result="BackgroundImageFix"/>
<feColorMatrix in="SourceAlpha" type="matrix" values="0 0 0 0 0 0 0 0 0 0 0 0 0 0 0 0 0 0 127 0" result="hardAlpha"/>
<feOffset dx="4" dy="4"/>
<feGaussianBlur stdDeviation="2.95"/>
<feComposite in2="hardAlpha" operator="out"/>
<feColorMatrix type="matrix" values="0 0 0 0 0 0 0 0 0 0 0 0 0 0 0 0 0 0 0.25 0"/>
<feBlend mode="normal" in2="BackgroundImageFix" result="effect1_dropShadow_111_61"/>
<feBlend mode="normal" in="SourceGraphic" in2="effect1_dropShadow_111_61" result="shape"/>
</filter>
</defs>
</svg>
