<svg width="19" height="14" viewBox="0 0 19 14" fill="none" xmlns="http://www.w3.org/2000/svg">
<path d="M1.56363 14C1.12877 14 0.759448 13.8448 0.455669 13.5343C0.15189 13.2238 0 12.8463 0 12.4019V1.59815C0 1.15368 0.15189 0.77621 0.455669 0.465726C0.759448 0.155242 1.12877 0 1.56363 0H17.4364C17.8896 0 18.2636 0.155242 18.5581 0.465726C18.8527 0.77621 19 1.15368 19 1.59815V12.4019C19 12.8463 18.8527 13.2238 18.5581 13.5343C18.2636 13.8448 17.8896 14 17.4364 14H1.56363ZM9.5 7.35621L18.1163 2.04298L17.7763 0.903226L9.5 5.95565L1.22368 0.903226L0.883721 2.04298L9.5 7.35621Z" fill="currentColor"/>
</svg>
