<svg width="17" height="17" viewBox="0 0 17 17" fill="none" xmlns="http://www.w3.org/2000/svg">
<path d="M15.2216 16.494C15.5657 16.5268 15.8689 16.4244 16.1311 16.1868C16.3933 15.9492 16.5244 15.6583 16.5244 15.3141V11.9711C16.5244 11.6925 16.4425 11.4508 16.2786 11.2459C16.1147 11.0411 15.8935 10.8977 15.6149 10.8158L12.9847 10.2504C12.7717 10.2176 12.5668 10.2299 12.3702 10.2873C12.1735 10.3446 12.0097 10.4389 11.8786 10.57L9.445 12.9298C8.82228 12.602 8.23233 12.2292 7.67515 11.8113C7.11798 11.3934 6.59358 10.9387 6.10195 10.447C5.57755 9.93903 5.10231 9.39824 4.67624 8.82468C4.25016 8.25112 3.87325 7.65297 3.5455 7.03025L5.92988 4.62128C6.06098 4.49018 6.15521 4.32631 6.21257 4.12966C6.26992 3.93301 6.28221 3.72816 6.24944 3.51512L5.65949 0.909507C5.59394 0.647307 5.45874 0.430172 5.2539 0.258103C5.04905 0.0860345 4.80734 0 4.52875 0H1.18569C0.841556 0 0.550678 0.127003 0.313059 0.38101C0.0754399 0.635016 -0.0269821 0.934089 0.00579292 1.27823C0.169668 3.26112 0.657197 5.13749 1.46838 6.90734C2.27956 8.67719 3.38982 10.2668 4.79914 11.6761C6.20847 13.0854 7.80216 14.2039 9.5802 15.0315C11.3582 15.859 13.2387 16.3466 15.2216 16.494Z" fill="currentColor"/>
</svg>
