<svg width="22" height="22" viewBox="0 0 22 22" fill="none" xmlns="http://www.w3.org/2000/svg">
<path d="M17.531 18.6771C17.8519 18.7076 18.1345 18.6138 18.3789 18.3954C18.6234 18.1773 18.7456 17.9045 18.7456 17.5771V14.4604C18.7456 14.2007 18.6692 13.9753 18.5164 13.7844C18.3637 13.5934 18.1574 13.4597 17.8977 13.3833L15.4456 12.8562C15.247 12.8257 15.056 12.8372 14.8727 12.8906C14.6894 12.9441 14.5366 13.0319 14.4144 13.1542L12.1456 15.3542C11.565 15.0486 11.015 14.701 10.4956 14.3115C9.97616 13.9219 9.48704 13.4978 9.02825 13.0391C8.53982 12.5658 8.09699 12.0618 7.69977 11.5271C7.30255 10.9924 6.95116 10.4347 6.64561 9.85417L8.86852 7.60833C8.99074 7.48611 9.07859 7.33333 9.13206 7.15C9.18554 6.96667 9.19699 6.77569 9.16644 6.57708L8.61644 4.14792C8.55533 3.90347 8.42929 3.70104 8.23831 3.54062C8.04734 3.38021 7.82199 3.3 7.56227 3.3H4.44561C4.1182 3.3 3.84542 3.4184 3.62725 3.65521C3.40893 3.89201 3.31505 4.17083 3.3456 4.49167C3.49838 6.34028 3.9529 8.08958 4.70915 9.73958C5.4654 11.3896 6.50047 12.8715 7.81435 14.1854C9.12824 15.4993 10.614 16.542 12.2716 17.3135C13.9293 18.0851 15.6824 18.5396 17.531 18.6771ZM5.88936 8.25C5.67547 7.71528 5.49977 7.17674 5.36227 6.63437C5.22477 6.09201 5.11783 5.53056 5.04144 4.95H7.10394L7.49352 6.64583L5.88936 8.25ZM13.7727 16.1333L15.3769 14.5292L17.0956 14.8958V16.9583C16.5303 16.8819 15.9689 16.7788 15.4112 16.649C14.8536 16.5191 14.3074 16.3472 13.7727 16.1333Z" fill="currentColor"/>
</svg>
