<svg width="218" height="242" viewBox="0 0 218 242" fill="none" xmlns="http://www.w3.org/2000/svg">
<path d="M0 101C0 89.9543 8.95431 81 20 81H111C122.046 81 131 89.9543 131 101V222C131 233.046 122.046 242 111 242H20C8.95431 242 0 233.046 0 222V101Z" fill="#4676AF"/>
<path d="M87 18C87 8.05888 95.0589 0 105 0H200C209.941 0 218 8.05888 218 18V196C218 205.941 209.941 214 200 214H105C95.0589 214 87 205.941 87 196V18Z" fill="#4A5575"/>
<path d="M87.8808 196.165C82.3009 201.562 77.4155 202.087 72.6473 195.899C68.0282 181.168 58.0317 160.237 46.1218 144.157C41.963 137.98 49.3922 131.395 62.5527 145.665C69.7263 153.726 75.6705 162.377 80.3961 171.006C101.08 138.402 137.082 101.181 170.348 81.0062C179.584 75.6732 180.76 78.1356 181.926 81.2083C143.026 109.832 107.527 153.165 87.8808 196.165Z" fill="white"/>
</svg>
