<svg width="221" height="40" viewBox="0 0 221 40" fill="none" xmlns="http://www.w3.org/2000/svg">
<g clip-path="url(#clip0_382_5)">
<path d="M0 16.6945C0 14.8687 1.47569 13.3887 3.29605 13.3887H17.3043C19.1247 13.3887 20.6003 14.8687 20.6003 16.6945V36.6945C20.6003 38.5202 19.1247 40.0002 17.3043 40.0002H3.29605C1.47569 40.0002 0 38.5202 0 36.6945V16.6945Z" fill="#2C68D7"/>
<path d="M14.3379 2.97521C14.3379 1.33205 15.666 0 17.3043 0H31.9717C33.61 0 34.9382 1.33205 34.9382 2.97521V32.3967C34.9382 34.0398 33.61 35.3719 31.9717 35.3719H17.3043C15.666 35.3719 14.3379 34.0398 14.3379 32.3967V2.97521Z" fill="#002669"/>
<path d="M14.4827 30.3237C13.7319 31.052 13.0745 31.1227 12.433 30.2877C11.8115 28.2998 10.4665 25.4753 8.86401 23.3054C8.30444 22.4718 9.30403 21.5831 11.0748 23.5088C12.04 24.5966 12.8398 25.7641 13.4756 26.9285C16.2585 22.5287 21.1026 17.5059 25.5786 14.7833C26.8213 14.0636 26.9795 14.3959 27.1364 14.8106C21.9024 18.6731 17.1259 24.5209 14.4827 30.3237Z" fill="white"/>
<path d="M44.0322 28.2649V12.8779H49.7853C50.9638 12.8779 51.9526 13.0833 52.7518 13.494C53.5558 13.9047 54.1625 14.4807 54.572 15.222C54.9865 15.9583 55.1938 16.8173 55.1938 17.7991C55.1938 18.7857 54.984 19.6422 54.5646 20.3685C54.1501 21.0898 53.5384 21.6483 52.7292 22.044C51.9202 22.4346 50.9264 22.63 49.7479 22.63H45.6503V20.3159H49.3733C50.0625 20.3159 50.6268 20.2207 51.0663 20.0305C51.5057 19.8351 51.8303 19.5521 52.0401 19.1814C52.2549 18.8059 52.3622 18.345 52.3622 17.7991C52.3622 17.2531 52.2549 16.7874 52.0401 16.4016C51.8254 16.0109 51.4983 15.7154 51.0587 15.515C50.6192 15.3097 50.0525 15.207 49.3583 15.207H46.8113V28.2649H44.0322ZM51.9577 21.2926L55.7556 28.2649H52.6544L48.9239 21.2926H51.9577Z" fill="black"/>
<path d="M62.0642 28.4901C60.9406 28.4901 59.9668 28.2422 59.1428 27.7463C58.3188 27.2504 57.6795 26.5567 57.225 25.6651C56.7756 24.7736 56.5508 23.7317 56.5508 22.5397C56.5508 21.3474 56.7756 20.3031 57.225 19.4066C57.6795 18.5101 58.3188 17.8139 59.1428 17.318C59.9668 16.8222 60.9406 16.5742 62.0642 16.5742C63.1879 16.5742 64.1617 16.8222 64.9857 17.318C65.8097 17.8139 66.4465 18.5101 66.8959 19.4066C67.3504 20.3031 67.5777 21.3474 67.5777 22.5397C67.5777 23.7317 67.3504 24.7736 66.8959 25.6651C66.4465 26.5567 65.8097 27.2504 64.9857 27.7463C64.1617 28.2422 63.1879 28.4901 62.0642 28.4901ZM62.0792 26.3112C62.6885 26.3112 63.1979 26.1435 63.6075 25.8078C64.0168 25.4673 64.3215 25.0114 64.5213 24.4405C64.7261 23.8694 64.8285 23.2334 64.8285 22.5321C64.8285 21.8258 64.7261 21.1873 64.5213 20.6162C64.3215 20.0402 64.0168 19.582 63.6075 19.2413C63.1979 18.9007 62.6885 18.7304 62.0792 18.7304C61.455 18.7304 60.9357 18.9007 60.521 19.2413C60.1117 19.582 59.8045 20.0402 59.5996 20.6162C59.3999 21.1873 59.3 21.8258 59.3 22.5321C59.3 23.2334 59.3999 23.8694 59.5996 24.4405C59.8045 25.0114 60.1117 25.4673 60.521 25.8078C60.9357 26.1435 61.455 26.3112 62.0792 26.3112Z" fill="black"/>
<path d="M74.4764 28.4901C73.3277 28.4901 72.3413 28.237 71.5173 27.7312C70.6984 27.2253 70.0666 26.5266 69.6221 25.635C69.1827 24.7385 68.9629 23.7066 68.9629 22.5397C68.9629 21.3676 69.1877 20.3332 69.6371 19.4367C70.0867 18.535 70.7208 17.8339 71.5399 17.3331C72.3639 16.8271 73.3377 16.5742 74.4614 16.5742C75.3953 16.5742 76.2218 16.7469 76.941 17.0926C77.6649 17.4332 78.2418 17.9165 78.6714 18.5426C79.1009 19.1636 79.3454 19.8899 79.4054 20.7215H76.8136C76.7086 20.1655 76.4589 19.7022 76.0644 19.3314C75.675 18.9559 75.153 18.7679 74.4988 18.7679C73.9445 18.7679 73.4575 18.9182 73.0381 19.2188C72.6185 19.5144 72.2914 19.94 72.0567 20.496C71.827 21.0521 71.7121 21.7182 71.7121 22.4945C71.7121 23.2808 71.827 23.957 72.0567 24.5231C72.2865 25.084 72.6086 25.5174 73.0231 25.8228C73.4425 26.1233 73.9345 26.2736 74.4988 26.2736C74.8984 26.2736 75.2554 26.1985 75.57 26.0483C75.8897 25.8929 76.1568 25.6701 76.3716 25.3795C76.5863 25.0891 76.7337 24.7359 76.8136 24.3202H79.4054C79.3405 25.1367 79.1009 25.8603 78.6862 26.4916C78.2718 27.1177 77.7075 27.6084 76.9934 27.9641C76.2791 28.3147 75.4401 28.4901 74.4764 28.4901Z" fill="black"/>
<path d="M83.6825 24.6436L83.6751 21.3602H84.1095L88.2445 16.7247H91.4134L86.3269 22.4045H85.7651L83.6825 24.6436ZM81.2104 28.2649V12.8779H83.9223V28.2649H81.2104ZM88.4319 28.2649L84.6863 23.0131L86.5141 21.0973L91.6754 28.2649H88.4319Z" fill="black"/>
<path d="M99.6221 28.2649V12.8779H104.986C106.054 12.8779 106.936 13.0633 107.63 13.4339C108.324 13.7995 108.841 14.2929 109.181 14.914C109.52 15.5301 109.69 16.2138 109.69 16.965C109.69 17.6262 109.573 18.1721 109.338 18.6029C109.108 19.0336 108.804 19.3743 108.424 19.6247C108.049 19.8751 107.642 20.0606 107.203 20.1807V20.331C107.672 20.3611 108.144 20.5264 108.619 20.8269C109.093 21.1274 109.49 21.5581 109.81 22.1191C110.129 22.6801 110.289 23.3664 110.289 24.1778C110.289 24.949 110.114 25.6427 109.765 26.2589C109.415 26.875 108.863 27.3632 108.109 27.7239C107.355 28.0845 106.374 28.2649 105.165 28.2649H99.6221ZM101.48 26.612H105.165C106.379 26.612 107.24 26.3766 107.75 25.9057C108.264 25.4298 108.521 24.854 108.521 24.1778C108.521 23.6568 108.389 23.1759 108.124 22.7351C107.86 22.2893 107.483 21.9338 106.993 21.6683C106.504 21.3978 105.924 21.2626 105.255 21.2626H101.48V26.612ZM101.48 19.6397H104.926C105.485 19.6397 105.989 19.5295 106.439 19.3092C106.893 19.0888 107.253 18.7783 107.518 18.3776C107.787 17.9768 107.922 17.506 107.922 16.965C107.922 16.2889 107.687 15.7154 107.218 15.2446C106.748 14.7687 106.004 14.5308 104.986 14.5308H101.48V19.6397Z" fill="black"/>
<path d="M117.354 28.505C116.316 28.505 115.404 28.257 114.62 27.7612C113.841 27.2653 113.232 26.5716 112.792 25.6802C112.358 24.7886 112.141 23.7468 112.141 22.5545C112.141 21.3526 112.358 20.3031 112.792 19.4066C113.232 18.5101 113.841 17.8139 114.62 17.318C115.404 16.8222 116.316 16.5742 117.354 16.5742C118.393 16.5742 119.302 16.8222 120.081 17.318C120.865 17.8139 121.475 18.5101 121.909 19.4066C122.348 20.3031 122.568 21.3526 122.568 22.5545C122.568 23.7468 122.348 24.7886 121.909 25.6802C121.475 26.5716 120.865 27.2653 120.081 27.7612C119.302 28.257 118.393 28.505 117.354 28.505ZM117.354 26.9122C118.144 26.9122 118.793 26.7094 119.302 26.3036C119.812 25.898 120.189 25.3645 120.433 24.7033C120.678 24.0422 120.8 23.326 120.8 22.5545C120.8 21.7833 120.678 21.0645 120.433 20.3984C120.189 19.7322 119.812 19.1937 119.302 18.783C118.793 18.3722 118.144 18.1669 117.354 18.1669C116.565 18.1669 115.916 18.3722 115.407 18.783C114.897 19.1937 114.52 19.7322 114.276 20.3984C114.031 21.0645 113.909 21.7833 113.909 22.5545C113.909 23.326 114.031 24.0422 114.276 24.7033C114.52 25.3645 114.897 25.898 115.407 26.3036C115.916 26.7094 116.565 26.9122 117.354 26.9122Z" fill="black"/>
<path d="M129.52 28.505C128.481 28.505 127.569 28.257 126.785 27.7612C126.006 27.2653 125.397 26.5716 124.957 25.6802C124.523 24.7886 124.306 23.7468 124.306 22.5545C124.306 21.3526 124.523 20.3031 124.957 19.4066C125.397 18.5101 126.006 17.8139 126.785 17.318C127.569 16.8222 128.481 16.5742 129.52 16.5742C130.558 16.5742 131.467 16.8222 132.246 17.318C133.03 17.8139 133.64 18.5101 134.074 19.4066C134.514 20.3031 134.733 21.3526 134.733 22.5545C134.733 23.7468 134.514 24.7886 134.074 25.6802C133.64 26.5716 133.03 27.2653 132.246 27.7612C131.467 28.257 130.558 28.505 129.52 28.505ZM129.52 26.9122C130.309 26.9122 130.958 26.7094 131.467 26.3036C131.977 25.898 132.354 25.3645 132.598 24.7033C132.843 24.0422 132.965 23.326 132.965 22.5545C132.965 21.7833 132.843 21.0645 132.598 20.3984C132.354 19.7322 131.977 19.1937 131.467 18.783C130.958 18.3722 130.309 18.1669 129.52 18.1669C128.73 18.1669 128.081 18.3722 127.572 18.783C127.062 19.1937 126.685 19.7322 126.441 20.3984C126.196 21.0645 126.074 21.7833 126.074 22.5545C126.074 23.326 126.196 24.0422 126.441 24.7033C126.685 25.3645 127.062 25.898 127.572 26.3036C128.081 26.7094 128.73 26.9122 129.52 26.9122Z" fill="black"/>
<path d="M138.658 24.0574L138.628 21.8637H138.987L144.021 16.7247H146.209L140.845 22.1642H140.695L138.658 24.0574ZM137.01 28.2649V12.8779H138.778V28.2649H137.01ZM144.321 28.2649L139.826 22.5548L141.085 21.3227L146.568 28.2649H144.321Z" fill="black"/>
<path d="M149.71 24.0574L149.68 21.8637H150.04L155.074 16.7247H157.261L151.897 22.1642H151.748L149.71 24.0574ZM148.062 28.2649V12.8779H149.83V28.2649H148.062ZM155.373 28.2649L150.879 22.5548L152.137 21.3227L157.621 28.2649H155.373Z" fill="black"/>
<path d="M163.465 28.505C162.357 28.505 161.4 28.2597 160.596 27.7688C159.797 27.2729 159.18 26.5817 158.746 25.695C158.316 24.8036 158.102 23.7668 158.102 22.5846C158.102 21.4026 158.316 20.3608 158.746 19.4592C159.18 18.5526 159.785 17.8464 160.559 17.3405C161.338 16.8296 162.247 16.5742 163.285 16.5742C163.885 16.5742 164.476 16.6744 165.061 16.8747C165.645 17.075 166.177 17.4007 166.656 17.8514C167.136 18.2972 167.518 18.8883 167.802 19.6245C168.087 20.3608 168.229 21.2674 168.229 22.3443V23.0955H159.36V21.5628H166.432C166.432 20.9117 166.302 20.3307 166.042 19.8198C165.788 19.3089 165.422 18.9058 164.949 18.6103C164.479 18.3147 163.925 18.1669 163.285 18.1669C162.581 18.1669 161.972 18.3423 161.458 18.6929C160.948 19.0385 160.556 19.4893 160.282 20.0453C160.007 20.6012 159.87 21.1972 159.87 21.8334V22.8552C159.87 23.7266 160.019 24.4655 160.319 25.0716C160.624 25.6726 161.046 26.1309 161.585 26.4464C162.124 26.757 162.751 26.9122 163.465 26.9122C163.93 26.9122 164.349 26.8471 164.724 26.7169C165.104 26.5817 165.43 26.3813 165.706 26.1159C165.979 25.8455 166.192 25.5098 166.342 25.1091L168.049 25.5899C167.869 26.1709 167.568 26.6818 167.143 27.1226C166.719 27.5584 166.195 27.899 165.57 28.1445C164.946 28.3848 164.244 28.505 163.465 28.505Z" fill="black"/>
<path d="M175.322 28.505C174.213 28.505 173.257 28.2597 172.453 27.7688C171.653 27.2729 171.037 26.5817 170.602 25.695C170.172 24.8036 169.958 23.7668 169.958 22.5846C169.958 21.4026 170.172 20.3608 170.602 19.4592C171.037 18.5526 171.64 17.8464 172.415 17.3405C173.194 16.8296 174.102 16.5742 175.141 16.5742C175.74 16.5742 176.332 16.6744 176.917 16.8747C177.501 17.075 178.033 17.4007 178.512 17.8514C178.992 18.2972 179.374 18.8883 179.658 19.6245C179.943 20.3608 180.085 21.2674 180.085 22.3443V23.0955H171.217V21.5628H178.288C178.288 20.9117 178.158 20.3307 177.898 19.8198C177.644 19.3089 177.278 18.9058 176.805 18.6103C176.335 18.3147 175.78 18.1669 175.141 18.1669C174.437 18.1669 173.829 18.3423 173.313 18.6929C172.804 19.0385 172.411 19.4893 172.138 20.0453C171.863 20.6012 171.726 21.1972 171.726 21.8334V22.8552C171.726 23.7266 171.876 24.4655 172.174 25.0716C172.479 25.6726 172.901 26.1309 173.441 26.4464C173.98 26.757 174.607 26.9122 175.322 26.9122C175.785 26.9122 176.205 26.8471 176.579 26.7169C176.96 26.5817 177.286 26.3813 177.562 26.1159C177.835 25.8455 178.048 25.5098 178.198 25.1091L179.905 25.5899C179.725 26.1709 179.424 26.6818 178.999 27.1226C178.575 27.5584 178.051 27.899 177.426 28.1445C176.802 28.3848 176.1 28.505 175.322 28.505Z" fill="black"/>
<path d="M182.352 32.5922V16.7245H184.061V18.5577H184.27C184.401 18.3574 184.58 18.1018 184.809 17.7912C185.045 17.4757 185.379 17.1952 185.813 16.9498C186.253 16.6993 186.848 16.5742 187.596 16.5742C188.565 16.5742 189.419 16.817 190.159 17.303C190.897 17.7888 191.474 18.4775 191.889 19.3691C192.303 20.2607 192.51 21.3124 192.51 22.5246C192.51 23.7468 192.303 24.8061 191.889 25.7026C191.474 26.5942 190.9 27.2855 190.165 27.7762C189.432 28.2622 188.585 28.505 187.626 28.505C186.887 28.505 186.296 28.3823 185.851 28.1369C185.406 27.8865 185.065 27.6035 184.824 27.2879C184.585 26.9673 184.401 26.7018 184.27 26.4916H184.12V32.5922H182.352ZM184.091 22.4945C184.091 23.3661 184.218 24.1349 184.473 24.801C184.727 25.4622 185.099 25.9807 185.589 26.3562C186.078 26.7269 186.678 26.9122 187.387 26.9122C188.125 26.9122 188.743 26.7169 189.237 26.3263C189.737 25.9306 190.111 25.3997 190.36 24.7334C190.615 24.0623 190.742 23.316 190.742 22.4945C190.742 21.6831 190.617 20.9517 190.368 20.3007C190.122 19.6445 189.752 19.1261 189.252 18.7455C188.758 18.3598 188.135 18.1669 187.387 18.1669C186.667 18.1669 186.063 18.3498 185.574 18.7154C185.084 19.076 184.715 19.582 184.465 20.2331C184.216 20.8792 184.091 21.6331 184.091 22.4945Z" fill="black"/>
<path d="M194.785 28.2643V16.7241H196.553V28.2643H194.785ZM195.685 14.8007C195.34 14.8007 195.042 14.683 194.793 14.4476C194.548 14.2122 194.426 13.9292 194.426 13.5986C194.426 13.268 194.548 12.985 194.793 12.7496C195.042 12.5142 195.34 12.3965 195.685 12.3965C196.029 12.3965 196.324 12.5142 196.568 12.7496C196.819 12.985 196.942 13.268 196.942 13.5986C196.942 13.9292 196.819 14.2122 196.568 14.4476C196.324 14.683 196.029 14.8007 195.685 14.8007Z" fill="black"/>
<path d="M201.138 21.3225V28.2646H199.37V16.7245H201.077V18.5276H201.227C201.497 17.9415 201.906 17.4707 202.456 17.115C203.005 16.7545 203.714 16.5742 204.582 16.5742C205.362 16.5742 206.044 16.7344 206.628 17.055C207.213 17.3706 207.667 17.8514 207.992 18.4975C208.317 19.1387 208.478 19.9501 208.478 20.9317V28.2646H206.71V21.0521C206.71 20.1455 206.476 19.4392 206.006 18.9332C205.537 18.4223 204.892 18.1669 204.073 18.1669C203.509 18.1669 203.005 18.2896 202.56 18.535C202.122 18.7805 201.774 19.1387 201.519 19.6094C201.265 20.0803 201.138 20.6512 201.138 21.3225Z" fill="black"/>
<path d="M215.931 32.8326C215.077 32.8326 214.344 32.7225 213.729 32.502C213.114 32.2866 212.603 32.0012 212.193 31.6455C211.789 31.2949 211.466 30.9193 211.227 30.5185L212.635 29.5268C212.794 29.7372 212.997 29.9777 213.243 30.2481C213.487 30.5236 213.821 30.7615 214.246 30.9618C214.675 31.1673 215.237 31.2699 215.931 31.2699C216.86 31.2699 217.626 31.0445 218.231 30.5937C218.836 30.143 219.138 29.4367 219.138 28.475V26.1309H218.988C218.857 26.3413 218.673 26.6017 218.434 26.9122C218.198 27.2179 217.859 27.4907 217.414 27.7312C216.975 27.9666 216.381 28.0843 215.632 28.0843C214.703 28.0843 213.869 27.864 213.129 27.4231C212.396 26.9823 211.814 26.3413 211.384 25.4998C210.96 24.6583 210.748 23.6365 210.748 22.4344C210.748 21.2524 210.955 20.223 211.369 19.3464C211.784 18.465 212.361 17.7838 213.099 17.303C213.839 16.817 214.693 16.5742 215.662 16.5742C216.41 16.5742 217.005 16.6993 217.445 16.9498C217.888 17.1952 218.228 17.4757 218.464 17.7912C218.703 18.1018 218.887 18.3574 219.017 18.5577H219.197V16.7245H220.906V28.5952C220.906 29.5869 220.68 30.3934 220.232 31.0144C219.787 31.6405 219.187 32.0988 218.434 32.3893C217.684 32.6848 216.85 32.8326 215.931 32.8326ZM215.871 26.4916C216.58 26.4916 217.18 26.3288 217.669 26.0031C218.159 25.6775 218.531 25.2093 218.785 24.5982C219.04 23.9871 219.167 23.2559 219.167 22.4043C219.167 21.5729 219.042 20.8392 218.793 20.203C218.543 19.5669 218.174 19.0686 217.684 18.7079C217.195 18.3473 216.59 18.1669 215.871 18.1669C215.123 18.1669 214.498 18.3574 213.999 18.738C213.505 19.1187 213.132 19.6294 212.882 20.2706C212.638 20.9117 212.516 21.623 212.516 22.4043C212.516 23.2058 212.641 23.9145 212.89 24.5306C213.145 25.1417 213.52 25.6225 214.014 25.9731C214.513 26.3187 215.133 26.4916 215.871 26.4916Z" fill="black"/>
</g>
<defs>
<clipPath id="clip0_382_5">
<rect width="221" height="40" fill="white"/>
</clipPath>
</defs>
</svg>
