<svg width="1347" height="242" viewBox="0 0 1347 242" fill="none" xmlns="http://www.w3.org/2000/svg">
<path d="M0 101C0 89.9543 8.95431 81 20 81H111C122.046 81 131 89.9543 131 101V222C131 233.046 122.046 242 111 242H20C8.95431 242 0 233.046 0 222V101Z" fill="#4676AF"/>
<path d="M87 18C87 8.05888 95.0589 0 105 0H200C209.941 0 218 8.05888 218 18V196C218 205.941 209.941 214 200 214H105C95.0589 214 87 205.941 87 196V18Z" fill="#4A5575"/>
<path d="M87.8808 196.165C82.3009 201.562 77.4155 202.087 72.6473 195.899C68.0282 181.168 58.0317 160.237 46.1218 144.157C41.963 137.98 49.3922 131.395 62.5527 145.665C69.7263 153.726 75.6705 162.377 80.3961 171.006C101.08 138.402 137.082 101.181 170.348 81.0062C179.584 75.6732 180.76 78.1356 181.926 81.2083C143.026 109.832 107.527 153.165 87.8808 196.165Z" fill="white"/>
<path d="M273.182 171V77.909H308.091C315.242 77.909 321.242 79.1514 326.091 81.6363C330.97 84.1211 334.651 87.606 337.136 92.0908C339.651 96.5454 340.909 101.742 340.909 107.682C340.909 113.651 339.636 118.833 337.091 123.227C334.576 127.591 330.864 130.97 325.954 133.364C321.045 135.727 315.015 136.909 307.864 136.909H283V122.909H305.591C309.773 122.909 313.197 122.333 315.864 121.182C318.53 120 320.5 118.288 321.773 116.045C323.076 113.773 323.727 110.985 323.727 107.682C323.727 104.379 323.076 101.561 321.773 99.2272C320.47 96.8636 318.485 95.0757 315.818 93.8635C313.151 92.6211 309.712 91.9999 305.5 91.9999H290.045V171H273.182ZM321.273 128.818L344.318 171H325.5L302.864 128.818H321.273Z" fill="white"/>
<path d="M382.599 172.364C375.781 172.364 369.872 170.864 364.872 167.864C359.872 164.864 355.993 160.667 353.235 155.273C350.508 149.879 349.144 143.576 349.144 136.364C349.144 129.151 350.508 122.833 353.235 117.409C355.993 111.985 359.872 107.773 364.872 104.773C369.872 101.773 375.781 100.273 382.599 100.273C389.417 100.273 395.326 101.773 400.326 104.773C405.326 107.773 409.19 111.985 411.917 117.409C414.675 122.833 416.054 129.151 416.054 136.364C416.054 143.576 414.675 149.879 411.917 155.273C409.19 160.667 405.326 164.864 400.326 167.864C395.326 170.864 389.417 172.364 382.599 172.364ZM382.69 159.182C386.387 159.182 389.478 158.167 391.963 156.136C394.447 154.076 396.296 151.318 397.508 147.864C398.751 144.409 399.372 140.561 399.372 136.318C399.372 132.045 398.751 128.182 397.508 124.727C396.296 121.242 394.447 118.47 391.963 116.409C389.478 114.348 386.387 113.318 382.69 113.318C378.902 113.318 375.751 114.348 373.235 116.409C370.751 118.47 368.887 121.242 367.644 124.727C366.432 128.182 365.826 132.045 365.826 136.318C365.826 140.561 366.432 144.409 367.644 147.864C368.887 151.318 370.751 154.076 373.235 156.136C375.751 158.167 378.902 159.182 382.69 159.182Z" fill="white"/>
<path d="M457.914 172.364C450.944 172.364 444.959 170.833 439.959 167.773C434.99 164.712 431.156 160.485 428.459 155.091C425.793 149.667 424.459 143.424 424.459 136.364C424.459 129.273 425.823 123.015 428.55 117.591C431.278 112.136 435.126 107.894 440.096 104.864C445.096 101.803 451.005 100.273 457.823 100.273C463.49 100.273 468.505 101.318 472.869 103.409C477.262 105.47 480.762 108.394 483.369 112.182C485.975 115.939 487.459 120.333 487.823 125.364H472.096C471.459 122 469.944 119.197 467.55 116.954C465.187 114.682 462.02 113.545 458.05 113.545C454.687 113.545 451.732 114.454 449.187 116.273C446.641 118.061 444.656 120.636 443.232 124C441.838 127.364 441.141 131.394 441.141 136.091C441.141 140.848 441.838 144.939 443.232 148.364C444.626 151.757 446.581 154.379 449.096 156.227C451.641 158.045 454.626 158.954 458.05 158.954C460.475 158.954 462.641 158.5 464.55 157.591C466.49 156.651 468.111 155.303 469.414 153.545C470.717 151.788 471.611 149.651 472.096 147.136H487.823C487.429 152.076 485.975 156.454 483.459 160.273C480.944 164.061 477.52 167.03 473.187 169.182C468.853 171.303 463.762 172.364 457.914 172.364Z" fill="white"/>
<path d="M513.774 149.091L513.729 129.227H516.365L541.456 101.182H560.684L529.82 135.545H526.411L513.774 149.091ZM498.774 171V77.909H515.229V171H498.774ZM542.593 171L519.865 139.227L530.956 127.636L562.274 171H542.593Z" fill="white"/>
<path d="M610.493 171V77.909H643.038C649.523 77.909 654.871 79.0302 659.084 81.2726C663.296 83.4848 666.432 86.4696 668.493 90.2272C670.553 93.9545 671.584 98.0908 671.584 102.636C671.584 106.636 670.871 109.939 669.447 112.545C668.053 115.151 666.205 117.212 663.902 118.727C661.629 120.242 659.159 121.364 656.493 122.091V123C659.341 123.182 662.205 124.182 665.084 126C667.962 127.818 670.371 130.424 672.311 133.818C674.25 137.212 675.22 141.364 675.22 146.273C675.22 150.939 674.159 155.136 672.038 158.864C669.917 162.591 666.568 165.545 661.993 167.727C657.417 169.909 651.462 171 644.129 171H610.493ZM621.765 161H644.129C651.493 161 656.72 159.576 659.811 156.727C662.932 153.848 664.493 150.364 664.493 146.273C664.493 143.121 663.69 140.212 662.084 137.545C660.477 134.848 658.19 132.697 655.22 131.091C652.25 129.454 648.735 128.636 644.674 128.636H621.765V161ZM621.765 118.818H642.674C646.068 118.818 649.129 118.151 651.856 116.818C654.614 115.485 656.796 113.606 658.402 111.182C660.038 108.757 660.856 105.909 660.856 102.636C660.856 98.5454 659.432 95.0757 656.584 92.2272C653.735 89.3484 649.22 87.909 643.038 87.909H621.765V118.818Z" fill="white"/>
<path d="M718.092 172.454C711.789 172.454 706.258 170.954 701.501 167.954C696.774 164.954 693.077 160.757 690.41 155.364C687.774 149.97 686.455 143.667 686.455 136.454C686.455 129.182 687.774 122.833 690.41 117.409C693.077 111.985 696.774 107.773 701.501 104.773C706.258 101.773 711.789 100.273 718.092 100.273C724.395 100.273 729.91 101.773 734.637 104.773C739.395 107.773 743.092 111.985 745.728 117.409C748.395 122.833 749.728 129.182 749.728 136.454C749.728 143.667 748.395 149.97 745.728 155.364C743.092 160.757 739.395 164.954 734.637 167.954C729.91 170.954 724.395 172.454 718.092 172.454ZM718.092 162.818C722.88 162.818 726.819 161.591 729.91 159.136C733.001 156.682 735.289 153.454 736.774 149.454C738.258 145.454 739.001 141.121 739.001 136.454C739.001 131.788 738.258 127.439 736.774 123.409C735.289 119.379 733.001 116.121 729.91 113.636C726.819 111.151 722.88 109.909 718.092 109.909C713.304 109.909 709.364 111.151 706.274 113.636C703.183 116.121 700.895 119.379 699.41 123.409C697.925 127.439 697.183 131.788 697.183 136.454C697.183 141.121 697.925 145.454 699.41 149.454C700.895 153.454 703.183 156.682 706.274 159.136C709.364 161.591 713.304 162.818 718.092 162.818Z" fill="white"/>
<path d="M791.907 172.454C785.604 172.454 780.073 170.954 775.316 167.954C770.589 164.954 766.892 160.757 764.225 155.364C761.589 149.97 760.27 143.667 760.27 136.454C760.27 129.182 761.589 122.833 764.225 117.409C766.892 111.985 770.589 107.773 775.316 104.773C780.073 101.773 785.604 100.273 791.907 100.273C798.21 100.273 803.725 101.773 808.452 104.773C813.21 107.773 816.907 111.985 819.543 117.409C822.21 122.833 823.543 129.182 823.543 136.454C823.543 143.667 822.21 149.97 819.543 155.364C816.907 160.757 813.21 164.954 808.452 167.954C803.725 170.954 798.21 172.454 791.907 172.454ZM791.907 162.818C796.695 162.818 800.634 161.591 803.725 159.136C806.816 156.682 809.104 153.454 810.589 149.454C812.073 145.454 812.816 141.121 812.816 136.454C812.816 131.788 812.073 127.439 810.589 123.409C809.104 119.379 806.816 116.121 803.725 113.636C800.634 111.151 796.695 109.909 791.907 109.909C787.119 109.909 783.179 111.151 780.089 113.636C776.998 116.121 774.71 119.379 773.225 123.409C771.74 127.439 770.998 131.788 770.998 136.454C770.998 141.121 771.74 145.454 773.225 149.454C774.71 153.454 776.998 156.682 780.089 159.136C783.179 161.591 787.119 162.818 791.907 162.818Z" fill="white"/>
<path d="M847.358 145.545L847.176 132.273H849.358L879.904 101.182H893.176L860.631 134.091H859.722L847.358 145.545ZM837.358 171V77.909H848.085V171H837.358ZM881.722 171L854.449 136.454L862.085 129L895.358 171H881.722Z" fill="white"/>
<path d="M914.423 145.545L914.241 132.273H916.423L946.969 101.182H960.241L927.696 134.091H926.787L914.423 145.545ZM904.423 171V77.909H915.15V171H904.423ZM948.787 171L921.514 136.454L929.15 129L962.423 171H948.787Z" fill="white"/>
<path d="M997.886 172.454C991.159 172.454 985.356 170.97 980.477 168C975.628 165 971.886 160.818 969.249 155.454C966.643 150.061 965.34 143.788 965.34 136.636C965.34 129.485 966.643 123.182 969.249 117.727C971.886 112.242 975.552 107.97 980.249 104.909C984.977 101.818 990.492 100.273 996.795 100.273C1000.43 100.273 1004.02 100.879 1007.57 102.091C1011.11 103.303 1014.34 105.273 1017.25 108C1020.16 110.697 1022.48 114.273 1024.2 118.727C1025.93 123.182 1026.79 128.667 1026.79 135.182V139.727H972.977V130.454H1015.89C1015.89 126.515 1015.1 123 1013.52 119.909C1011.98 116.818 1009.76 114.379 1006.89 112.591C1004.04 110.803 1000.67 109.909 996.795 109.909C992.522 109.909 988.825 110.97 985.704 113.091C982.613 115.182 980.234 117.909 978.568 121.273C976.901 124.636 976.068 128.242 976.068 132.091V138.273C976.068 143.545 976.977 148.015 978.795 151.682C980.643 155.318 983.204 158.091 986.477 160C989.749 161.879 993.552 162.818 997.886 162.818C1000.7 162.818 1003.25 162.424 1005.52 161.636C1007.83 160.818 1009.81 159.606 1011.48 158C1013.14 156.364 1014.43 154.333 1015.34 151.909L1025.7 154.818C1024.61 158.333 1022.78 161.424 1020.2 164.091C1017.63 166.727 1014.45 168.788 1010.66 170.273C1006.87 171.727 1002.61 172.454 997.886 172.454Z" fill="white"/>
<path d="M1069.83 172.454C1063.1 172.454 1057.3 170.97 1052.42 168C1047.57 165 1043.83 160.818 1041.19 155.454C1038.58 150.061 1037.28 143.788 1037.28 136.636C1037.28 129.485 1038.58 123.182 1041.19 117.727C1043.83 112.242 1047.49 107.97 1052.19 104.909C1056.92 101.818 1062.43 100.273 1068.73 100.273C1072.37 100.273 1075.96 100.879 1079.51 102.091C1083.05 103.303 1086.28 105.273 1089.19 108C1092.1 110.697 1094.42 114.273 1096.14 118.727C1097.87 123.182 1098.73 128.667 1098.73 135.182V139.727H1044.92V130.454H1087.83C1087.83 126.515 1087.04 123 1085.46 119.909C1083.92 116.818 1081.7 114.379 1078.83 112.591C1075.98 110.803 1072.61 109.909 1068.73 109.909C1064.46 109.909 1060.77 110.97 1057.64 113.091C1054.55 115.182 1052.17 117.909 1050.51 121.273C1048.84 124.636 1048.01 128.242 1048.01 132.091V138.273C1048.01 143.545 1048.92 148.015 1050.73 151.682C1052.58 155.318 1055.14 158.091 1058.42 160C1061.69 161.879 1065.49 162.818 1069.83 162.818C1072.64 162.818 1075.19 162.424 1077.46 161.636C1079.77 160.818 1081.75 159.606 1083.42 158C1085.08 156.364 1086.37 154.333 1087.28 151.909L1097.64 154.818C1096.55 158.333 1094.72 161.424 1092.14 164.091C1089.57 166.727 1086.39 168.788 1082.6 170.273C1078.81 171.727 1074.55 172.454 1069.83 172.454Z" fill="white"/>
<path d="M1112.49 197.182V101.182H1122.86V112.273H1124.13C1124.92 111.061 1126.01 109.515 1127.4 107.636C1128.83 105.727 1130.86 104.03 1133.49 102.545C1136.16 101.03 1139.77 100.273 1144.31 100.273C1150.19 100.273 1155.37 101.742 1159.86 104.682C1164.34 107.621 1167.84 111.788 1170.36 117.182C1172.87 122.576 1174.13 128.939 1174.13 136.273C1174.13 143.667 1172.87 150.076 1170.36 155.5C1167.84 160.894 1164.36 165.076 1159.9 168.045C1155.45 170.985 1150.31 172.454 1144.49 172.454C1140.01 172.454 1136.42 171.712 1133.72 170.227C1131.02 168.712 1128.95 167 1127.49 165.091C1126.04 163.151 1124.92 161.545 1124.13 160.273H1123.22V197.182H1112.49ZM1123.04 136.091C1123.04 141.364 1123.81 146.015 1125.36 150.045C1126.9 154.045 1129.16 157.182 1132.13 159.454C1135.1 161.697 1138.74 162.818 1143.04 162.818C1147.52 162.818 1151.27 161.636 1154.27 159.273C1157.3 156.879 1159.57 153.667 1161.08 149.636C1162.63 145.576 1163.4 141.061 1163.4 136.091C1163.4 131.182 1162.64 126.757 1161.13 122.818C1159.64 118.848 1157.39 115.712 1154.36 113.409C1151.36 111.076 1147.58 109.909 1143.04 109.909C1138.67 109.909 1135.01 111.015 1132.04 113.227C1129.07 115.409 1126.83 118.47 1125.31 122.409C1123.8 126.318 1123.04 130.879 1123.04 136.091Z" fill="white"/>
<path d="M1187.93 171V101.182H1198.66V171H1187.93ZM1193.39 89.5454C1191.3 89.5454 1189.49 88.8332 1187.98 87.409C1186.49 85.9848 1185.75 84.2726 1185.75 82.2726C1185.75 80.2726 1186.49 78.5605 1187.98 77.1363C1189.49 75.712 1191.3 74.9999 1193.39 74.9999C1195.48 74.9999 1197.27 75.712 1198.75 77.1363C1200.27 78.5605 1201.02 80.2726 1201.02 82.2726C1201.02 84.2726 1200.27 85.9848 1198.75 87.409C1197.27 88.8332 1195.48 89.5454 1193.39 89.5454Z" fill="white"/>
<path d="M1226.48 129V171H1215.75V101.182H1226.11V112.091H1227.02C1228.66 108.545 1231.14 105.697 1234.48 103.545C1237.81 101.364 1242.11 100.273 1247.38 100.273C1252.11 100.273 1256.25 101.242 1259.79 103.182C1263.34 105.091 1266.1 108 1268.07 111.909C1270.04 115.788 1271.02 120.697 1271.02 126.636V171H1260.29V127.364C1260.29 121.879 1258.87 117.606 1256.02 114.545C1253.17 111.454 1249.26 109.909 1244.29 109.909C1240.87 109.909 1237.81 110.651 1235.11 112.136C1232.45 113.621 1230.34 115.788 1228.79 118.636C1227.25 121.485 1226.48 124.939 1226.48 129Z" fill="white"/>
<path d="M1316.24 198.636C1311.06 198.636 1306.61 197.97 1302.88 196.636C1299.15 195.333 1296.05 193.606 1293.56 191.454C1291.11 189.333 1289.15 187.061 1287.7 184.636L1296.24 178.636C1297.21 179.909 1298.44 181.364 1299.93 183C1301.41 184.667 1303.44 186.106 1306.02 187.318C1308.62 188.561 1312.03 189.182 1316.24 189.182C1321.88 189.182 1326.53 187.818 1330.2 185.091C1333.87 182.364 1335.7 178.091 1335.7 172.273V158.091H1334.79C1334 159.364 1332.88 160.939 1331.43 162.818C1330 164.667 1327.94 166.318 1325.24 167.773C1322.58 169.197 1318.97 169.909 1314.43 169.909C1308.79 169.909 1303.73 168.576 1299.24 165.909C1294.79 163.242 1291.26 159.364 1288.65 154.273C1286.08 149.182 1284.79 143 1284.79 135.727C1284.79 128.576 1286.05 122.348 1288.56 117.045C1291.08 111.712 1294.58 107.591 1299.06 104.682C1303.55 101.742 1308.73 100.273 1314.61 100.273C1319.15 100.273 1322.76 101.03 1325.43 102.545C1328.12 104.03 1330.18 105.727 1331.61 107.636C1333.06 109.515 1334.18 111.061 1334.97 112.273H1336.06V101.182H1346.43V173C1346.43 179 1345.06 183.879 1342.34 187.636C1339.64 191.424 1336 194.197 1331.43 195.954C1326.88 197.742 1321.82 198.636 1316.24 198.636ZM1315.88 160.273C1320.18 160.273 1323.82 159.288 1326.79 157.318C1329.76 155.348 1332.02 152.515 1333.56 148.818C1335.11 145.121 1335.88 140.697 1335.88 135.545C1335.88 130.515 1335.12 126.076 1333.61 122.227C1332.09 118.379 1329.85 115.364 1326.88 113.182C1323.91 111 1320.24 109.909 1315.88 109.909C1311.34 109.909 1307.55 111.061 1304.52 113.364C1301.52 115.667 1299.26 118.757 1297.74 122.636C1296.26 126.515 1295.52 130.818 1295.52 135.545C1295.52 140.394 1296.28 144.682 1297.79 148.409C1299.34 152.106 1301.61 155.015 1304.61 157.136C1307.64 159.227 1311.4 160.273 1315.88 160.273Z" fill="white"/>
</svg>
