<svg width="1006" height="265" viewBox="0 0 1006 265" fill="none" xmlns="http://www.w3.org/2000/svg">
<path d="M0 101C0 89.9543 8.95431 81 20 81H105C116.046 81 125 89.9543 125 101V222C125 233.046 116.046 242 105 242H20C8.95431 242 0 233.046 0 222V101Z" fill="#4676AF"/>
<path d="M87 18C87 8.05888 95.0589 0 105 0H194C203.941 0 212 8.05888 212 18V196C212 205.941 203.941 214 194 214H105C95.0589 214 87 205.941 87 196V18Z" fill="#2D3856"/>
<path d="M87.8779 183.458C83.3223 187.864 79.3337 188.292 75.4408 183.24C71.6697 171.213 63.5082 154.125 53.7847 140.997C50.3893 135.954 56.4547 130.577 67.1993 142.228C73.056 148.809 77.9091 155.872 81.7672 162.917C98.6537 136.298 128.047 105.91 155.207 89.4385C162.747 85.0845 163.707 87.0949 164.659 89.6035C132.9 112.972 103.917 148.351 87.8779 183.458Z" fill="white"/>
<path d="M267.182 115V21.909H302.091C309.242 21.909 315.242 23.1514 320.091 25.6363C324.97 28.1211 328.651 31.606 331.136 36.0908C333.651 40.5454 334.909 45.7423 334.909 51.6817C334.909 57.6514 333.636 62.8332 331.091 67.2272C328.576 71.5908 324.864 74.9696 319.954 77.3636C315.045 79.7272 309.015 80.909 301.864 80.909H277V66.909H299.591C303.773 66.909 307.197 66.3332 309.864 65.1817C312.53 63.9999 314.5 62.2878 315.773 60.0454C317.076 57.7726 317.727 54.9848 317.727 51.6817C317.727 48.3787 317.076 45.5605 315.773 43.2272C314.47 40.8636 312.485 39.0757 309.818 37.8636C307.151 36.6211 303.712 35.9999 299.5 35.9999H284.045V115H267.182ZM315.273 72.8181L338.318 115H319.5L296.864 72.8181H315.273Z" fill="#1F2937"/>
<path d="M376.599 116.364C369.781 116.364 363.872 114.864 358.872 111.864C353.872 108.864 349.993 104.667 347.235 99.2726C344.508 93.8787 343.144 87.5757 343.144 80.3636C343.144 73.1514 344.508 66.8333 347.235 61.409C349.993 55.9848 353.872 51.7726 358.872 48.7726C363.872 45.7726 369.781 44.2726 376.599 44.2726C383.417 44.2726 389.326 45.7726 394.326 48.7726C399.326 51.7726 403.19 55.9848 405.917 61.409C408.675 66.8333 410.054 73.1514 410.054 80.3636C410.054 87.5757 408.675 93.8787 405.917 99.2726C403.19 104.667 399.326 108.864 394.326 111.864C389.326 114.864 383.417 116.364 376.599 116.364ZM376.69 103.182C380.387 103.182 383.478 102.167 385.963 100.136C388.447 98.0757 390.296 95.3181 391.508 91.8636C392.751 88.409 393.372 84.5605 393.372 80.3181C393.372 76.0454 392.751 72.1817 391.508 68.7272C390.296 65.2423 388.447 62.4696 385.963 60.409C383.478 58.3484 380.387 57.3181 376.69 57.3181C372.902 57.3181 369.751 58.3484 367.235 60.409C364.751 62.4696 362.887 65.2423 361.644 68.7272C360.432 72.1817 359.826 76.0454 359.826 80.3181C359.826 84.5605 360.432 88.409 361.644 91.8636C362.887 95.3181 364.751 98.0757 367.235 100.136C369.751 102.167 372.902 103.182 376.69 103.182Z" fill="#1F2937"/>
<path d="M451.914 116.364C444.944 116.364 438.959 114.833 433.959 111.773C428.99 108.712 425.156 104.485 422.459 99.0908C419.793 93.6666 418.459 87.4242 418.459 80.3636C418.459 73.2726 419.823 67.0151 422.55 61.5908C425.278 56.1363 429.126 51.8939 434.096 48.8636C439.096 45.8029 445.005 44.2726 451.823 44.2726C457.49 44.2726 462.505 45.3181 466.869 47.409C471.262 49.4696 474.762 52.3939 477.369 56.1817C479.975 59.9393 481.459 64.3333 481.823 69.3636H466.096C465.459 65.9999 463.944 63.1969 461.55 60.9545C459.187 58.6817 456.02 57.5454 452.05 57.5454C448.687 57.5454 445.732 58.4545 443.187 60.2726C440.641 62.0605 438.656 64.6363 437.232 67.9999C435.838 71.3636 435.141 75.3939 435.141 80.0908C435.141 84.8484 435.838 88.9393 437.232 92.3636C438.626 95.7575 440.581 98.3787 443.096 100.227C445.641 102.045 448.626 102.954 452.05 102.954C454.475 102.954 456.641 102.5 458.55 101.591C460.49 100.651 462.111 99.3029 463.414 97.5454C464.717 95.7878 465.611 93.6514 466.096 91.1363H481.823C481.429 96.0757 479.975 100.454 477.459 104.273C474.944 108.061 471.52 111.03 467.187 113.182C462.853 115.303 457.762 116.364 451.914 116.364Z" fill="#1F2937"/>
<path d="M507.774 93.0908L507.729 73.2272H510.365L535.456 45.1817H554.684L523.82 79.5454H520.411L507.774 93.0908ZM492.774 115V21.909H509.229V115H492.774ZM536.593 115L513.865 83.2272L524.956 71.6363L556.274 115H536.593Z" fill="#1F2937"/>
<path d="M269.273 237V143.909H301.818C308.303 143.909 313.651 145.03 317.864 147.273C322.076 149.485 325.212 152.47 327.273 156.227C329.333 159.954 330.364 164.091 330.364 168.636C330.364 172.636 329.651 175.939 328.227 178.545C326.833 181.151 324.985 183.212 322.682 184.727C320.409 186.242 317.939 187.364 315.273 188.091V189C318.121 189.182 320.985 190.182 323.864 192C326.742 193.818 329.151 196.424 331.091 199.818C333.03 203.212 334 207.364 334 212.273C334 216.939 332.939 221.136 330.818 224.864C328.697 228.591 325.348 231.545 320.773 233.727C316.197 235.909 310.242 237 302.909 237H269.273ZM280.545 227H302.909C310.273 227 315.5 225.576 318.591 222.727C321.712 219.848 323.273 216.364 323.273 212.273C323.273 209.121 322.47 206.212 320.864 203.545C319.257 200.848 316.97 198.697 314 197.091C311.03 195.454 307.515 194.636 303.454 194.636H280.545V227ZM280.545 184.818H301.454C304.848 184.818 307.909 184.151 310.636 182.818C313.394 181.485 315.576 179.606 317.182 177.182C318.818 174.757 319.636 171.909 319.636 168.636C319.636 164.545 318.212 161.076 315.364 158.227C312.515 155.348 308 153.909 301.818 153.909H280.545V184.818Z" fill="#1F2937"/>
<path d="M376.872 238.454C370.569 238.454 365.038 236.954 360.281 233.954C355.554 230.954 351.857 226.757 349.19 221.364C346.554 215.97 345.235 209.667 345.235 202.454C345.235 195.182 346.554 188.833 349.19 183.409C351.857 177.985 355.554 173.773 360.281 170.773C365.038 167.773 370.569 166.273 376.872 166.273C383.175 166.273 388.69 167.773 393.417 170.773C398.175 173.773 401.872 177.985 404.508 183.409C407.175 188.833 408.508 195.182 408.508 202.454C408.508 209.667 407.175 215.97 404.508 221.364C401.872 226.757 398.175 230.954 393.417 233.954C388.69 236.954 383.175 238.454 376.872 238.454ZM376.872 228.818C381.66 228.818 385.599 227.591 388.69 225.136C391.781 222.682 394.069 219.454 395.554 215.454C397.038 211.454 397.781 207.121 397.781 202.454C397.781 197.788 397.038 193.439 395.554 189.409C394.069 185.379 391.781 182.121 388.69 179.636C385.599 177.151 381.66 175.909 376.872 175.909C372.084 175.909 368.144 177.151 365.054 179.636C361.963 182.121 359.675 185.379 358.19 189.409C356.705 193.439 355.963 197.788 355.963 202.454C355.963 207.121 356.705 211.454 358.19 215.454C359.675 219.454 361.963 222.682 365.054 225.136C368.144 227.591 372.084 228.818 376.872 228.818Z" fill="#1F2937"/>
<path d="M450.687 238.454C444.384 238.454 438.853 236.954 434.096 233.954C429.369 230.954 425.672 226.757 423.005 221.364C420.369 215.97 419.05 209.667 419.05 202.454C419.05 195.182 420.369 188.833 423.005 183.409C425.672 177.985 429.369 173.773 434.096 170.773C438.853 167.773 444.384 166.273 450.687 166.273C456.99 166.273 462.505 167.773 467.232 170.773C471.99 173.773 475.687 177.985 478.323 183.409C480.99 188.833 482.323 195.182 482.323 202.454C482.323 209.667 480.99 215.97 478.323 221.364C475.687 226.757 471.99 230.954 467.232 233.954C462.505 236.954 456.99 238.454 450.687 238.454ZM450.687 228.818C455.475 228.818 459.414 227.591 462.505 225.136C465.596 222.682 467.884 219.454 469.369 215.454C470.853 211.454 471.596 207.121 471.596 202.454C471.596 197.788 470.853 193.439 469.369 189.409C467.884 185.379 465.596 182.121 462.505 179.636C459.414 177.151 455.475 175.909 450.687 175.909C445.899 175.909 441.959 177.151 438.869 179.636C435.778 182.121 433.49 185.379 432.005 189.409C430.52 193.439 429.778 197.788 429.778 202.454C429.778 207.121 430.52 211.454 432.005 215.454C433.49 219.454 435.778 222.682 438.869 225.136C441.959 227.591 445.899 228.818 450.687 228.818Z" fill="#1F2937"/>
<path d="M506.138 211.545L505.956 198.273H508.138L538.684 167.182H551.956L519.411 200.091H518.502L506.138 211.545ZM496.138 237V143.909H506.865V237H496.138ZM540.502 237L513.229 202.454L520.865 195L554.138 237H540.502Z" fill="#1F2937"/>
<path d="M573.203 211.545L573.021 198.273H575.203L605.749 167.182H619.021L586.476 200.091H585.567L573.203 211.545ZM563.203 237V143.909H573.93V237H563.203ZM607.567 237L580.294 202.454L587.93 195L621.203 237H607.567Z" fill="#1F2937"/>
<path d="M656.666 238.454C649.939 238.454 644.136 236.97 639.257 234C634.408 231 630.666 226.818 628.029 221.454C625.423 216.061 624.12 209.788 624.12 202.636C624.12 195.485 625.423 189.182 628.029 183.727C630.666 178.242 634.333 173.97 639.029 170.909C643.757 167.818 649.272 166.273 655.575 166.273C659.211 166.273 662.802 166.879 666.348 168.091C669.893 169.303 673.12 171.273 676.029 174C678.939 176.697 681.257 180.273 682.984 184.727C684.711 189.182 685.575 194.667 685.575 201.182V205.727H631.757V196.454H674.666C674.666 192.515 673.878 189 672.302 185.909C670.757 182.818 668.545 180.379 665.666 178.591C662.817 176.803 659.454 175.909 655.575 175.909C651.302 175.909 647.605 176.97 644.484 179.091C641.393 181.182 639.014 183.909 637.348 187.273C635.681 190.636 634.848 194.242 634.848 198.091V204.273C634.848 209.545 635.757 214.015 637.575 217.682C639.423 221.318 641.984 224.091 645.257 226C648.53 227.879 652.332 228.818 656.666 228.818C659.484 228.818 662.029 228.424 664.302 227.636C666.605 226.818 668.59 225.606 670.257 224C671.923 222.364 673.211 220.333 674.12 217.909L684.484 220.818C683.393 224.333 681.56 227.424 678.984 230.091C676.408 232.727 673.226 234.788 669.439 236.273C665.651 237.727 661.393 238.454 656.666 238.454Z" fill="#1F2937"/>
<path d="M728.606 238.454C721.879 238.454 716.076 236.97 711.197 234C706.348 231 702.606 226.818 699.969 221.454C697.363 216.061 696.06 209.788 696.06 202.636C696.06 195.485 697.363 189.182 699.969 183.727C702.606 178.242 706.273 173.97 710.969 170.909C715.697 167.818 721.212 166.273 727.515 166.273C731.151 166.273 734.742 166.879 738.288 168.091C741.833 169.303 745.06 171.273 747.969 174C750.879 176.697 753.197 180.273 754.924 184.727C756.651 189.182 757.515 194.667 757.515 201.182V205.727H703.697V196.454H746.606C746.606 192.515 745.818 189 744.242 185.909C742.697 182.818 740.485 180.379 737.606 178.591C734.757 176.803 731.394 175.909 727.515 175.909C723.242 175.909 719.545 176.97 716.424 179.091C713.333 181.182 710.954 183.909 709.288 187.273C707.621 190.636 706.788 194.242 706.788 198.091V204.273C706.788 209.545 707.697 214.015 709.515 217.682C711.363 221.318 713.924 224.091 717.197 226C720.47 227.879 724.273 228.818 728.606 228.818C731.424 228.818 733.969 228.424 736.242 227.636C738.545 226.818 740.53 225.606 742.197 224C743.863 222.364 745.151 220.333 746.06 217.909L756.424 220.818C755.333 224.333 753.5 227.424 750.924 230.091C748.348 232.727 745.166 234.788 741.379 236.273C737.591 237.727 733.333 238.454 728.606 238.454Z" fill="#1F2937"/>
<path d="M771.273 263.182V167.182H781.637V178.273H782.909C783.697 177.061 784.788 175.515 786.182 173.636C787.606 171.727 789.637 170.03 792.273 168.545C794.94 167.03 798.546 166.273 803.091 166.273C808.97 166.273 814.152 167.742 818.637 170.682C823.122 173.621 826.622 177.788 829.137 183.182C831.652 188.576 832.909 194.939 832.909 202.273C832.909 209.667 831.652 216.076 829.137 221.5C826.622 226.894 823.137 231.076 818.682 234.045C814.228 236.985 809.091 238.454 803.273 238.454C798.788 238.454 795.197 237.712 792.5 236.227C789.803 234.712 787.728 233 786.273 231.091C784.819 229.151 783.697 227.545 782.909 226.273H782V263.182H771.273ZM781.819 202.091C781.819 207.364 782.591 212.015 784.137 216.045C785.682 220.045 787.94 223.182 790.909 225.454C793.879 227.697 797.516 228.818 801.819 228.818C806.303 228.818 810.046 227.636 813.046 225.273C816.076 222.879 818.349 219.667 819.864 215.636C821.409 211.576 822.182 207.061 822.182 202.091C822.182 197.182 821.425 192.757 819.909 188.818C818.425 184.848 816.167 181.712 813.137 179.409C810.137 177.076 806.364 175.909 801.819 175.909C797.455 175.909 793.788 177.015 790.819 179.227C787.849 181.409 785.606 184.47 784.091 188.409C782.576 192.318 781.819 196.879 781.819 202.091Z" fill="#1F2937"/>
<path d="M846.713 237V167.182H857.44V237H846.713ZM852.168 155.545C850.077 155.545 848.274 154.833 846.759 153.409C845.274 151.985 844.531 150.273 844.531 148.273C844.531 146.273 845.274 144.561 846.759 143.136C848.274 141.712 850.077 141 852.168 141C854.259 141 856.046 141.712 857.531 143.136C859.046 144.561 859.804 146.273 859.804 148.273C859.804 150.273 859.046 151.985 857.531 153.409C856.046 154.833 854.259 155.545 852.168 155.545Z" fill="#1F2937"/>
<path d="M885.255 195V237H874.528V167.182H884.892V178.091H885.801C887.437 174.545 889.922 171.697 893.255 169.545C896.589 167.364 900.892 166.273 906.164 166.273C910.892 166.273 915.028 167.242 918.574 169.182C922.119 171.091 924.877 174 926.846 177.909C928.816 181.788 929.801 186.697 929.801 192.636V237H919.074V193.364C919.074 187.879 917.649 183.606 914.801 180.545C911.952 177.454 908.043 175.909 903.074 175.909C899.649 175.909 896.589 176.651 893.892 178.136C891.225 179.621 889.119 181.788 887.574 184.636C886.028 187.485 885.255 190.939 885.255 195Z" fill="#1F2937"/>
<path d="M975.025 264.636C969.843 264.636 965.389 263.97 961.661 262.636C957.934 261.333 954.828 259.606 952.343 257.454C949.889 255.333 947.934 253.061 946.479 250.636L955.025 244.636C955.995 245.909 957.222 247.364 958.707 249C960.192 250.667 962.222 252.106 964.798 253.318C967.404 254.561 970.813 255.182 975.025 255.182C980.661 255.182 985.313 253.818 988.979 251.091C992.646 248.364 994.479 244.091 994.479 238.273V224.091H993.57C992.782 225.364 991.661 226.939 990.207 228.818C988.783 230.667 986.722 232.318 984.025 233.773C981.358 235.197 977.752 235.909 973.207 235.909C967.57 235.909 962.51 234.576 958.025 231.909C953.57 229.242 950.04 225.364 947.434 220.273C944.858 215.182 943.57 209 943.57 201.727C943.57 194.576 944.828 188.348 947.343 183.045C949.858 177.712 953.358 173.591 957.843 170.682C962.328 167.742 967.51 166.273 973.389 166.273C977.934 166.273 981.54 167.03 984.207 168.545C986.904 170.03 988.964 171.727 990.389 173.636C991.843 175.515 992.964 177.061 993.752 178.273H994.843V167.182H1005.21V239C1005.21 245 1003.84 249.879 1001.12 253.636C998.419 257.424 994.783 260.197 990.207 261.954C985.661 263.742 980.601 264.636 975.025 264.636ZM974.661 226.273C978.964 226.273 982.601 225.288 985.57 223.318C988.54 221.348 990.798 218.515 992.343 214.818C993.889 211.121 994.661 206.697 994.661 201.545C994.661 196.515 993.904 192.076 992.389 188.227C990.873 184.379 988.631 181.364 985.661 179.182C982.692 177 979.025 175.909 974.661 175.909C970.116 175.909 966.328 177.061 963.298 179.364C960.298 181.667 958.04 184.757 956.525 188.636C955.04 192.515 954.298 196.818 954.298 201.545C954.298 206.394 955.055 210.682 956.57 214.409C958.116 218.106 960.389 221.015 963.389 223.136C966.419 225.227 970.176 226.273 974.661 226.273Z" fill="#1F2937"/>
</svg>
