<svg width="1324" height="242" viewBox="0 0 1324 242" fill="none" xmlns="http://www.w3.org/2000/svg">
<path d="M0 101C0 89.9543 8.95431 81 20 81H105C116.046 81 125 89.9543 125 101V222C125 233.046 116.046 242 105 242H20C8.95431 242 0 233.046 0 222V101Z" fill="#4676AF"/>
<path d="M87 18C87 8.05888 95.0589 0 105 0H194C203.941 0 212 8.05888 212 18V196C212 205.941 203.941 214 194 214H105C95.0589 214 87 205.941 87 196V18Z" fill="#2D3856"/>
<path d="M87.8779 183.458C83.3223 187.864 79.3337 188.292 75.4408 183.24C71.6697 171.213 63.5082 154.125 53.7847 140.997C50.3893 135.954 56.4547 130.577 67.1993 142.228C73.056 148.809 77.9091 155.872 81.7672 162.917C98.6537 136.298 128.047 105.91 155.207 89.4385C162.747 85.0845 163.707 87.0949 164.659 89.6035C132.9 112.972 103.917 148.351 87.8779 183.458Z" fill="white"/>
<path d="M253.182 171V77.909H288.091C295.242 77.909 301.242 79.1514 306.091 81.6363C310.97 84.1211 314.651 87.606 317.136 92.0908C319.651 96.5454 320.909 101.742 320.909 107.682C320.909 113.651 319.636 118.833 317.091 123.227C314.576 127.591 310.864 130.97 305.954 133.364C301.045 135.727 295.015 136.909 287.864 136.909H263V122.909H285.591C289.773 122.909 293.197 122.333 295.864 121.182C298.53 120 300.5 118.288 301.773 116.045C303.076 113.773 303.727 110.985 303.727 107.682C303.727 104.379 303.076 101.561 301.773 99.2272C300.47 96.8636 298.485 95.0757 295.818 93.8635C293.151 92.6211 289.712 91.9999 285.5 91.9999H270.045V171H253.182ZM301.273 128.818L324.318 171H305.5L282.864 128.818H301.273Z" fill="#1F2937"/>
<path d="M362.599 172.364C355.781 172.364 349.872 170.864 344.872 167.864C339.872 164.864 335.993 160.667 333.235 155.273C330.508 149.879 329.144 143.576 329.144 136.364C329.144 129.151 330.508 122.833 333.235 117.409C335.993 111.985 339.872 107.773 344.872 104.773C349.872 101.773 355.781 100.273 362.599 100.273C369.417 100.273 375.326 101.773 380.326 104.773C385.326 107.773 389.19 111.985 391.917 117.409C394.675 122.833 396.054 129.151 396.054 136.364C396.054 143.576 394.675 149.879 391.917 155.273C389.19 160.667 385.326 164.864 380.326 167.864C375.326 170.864 369.417 172.364 362.599 172.364ZM362.69 159.182C366.387 159.182 369.478 158.167 371.963 156.136C374.447 154.076 376.296 151.318 377.508 147.864C378.751 144.409 379.372 140.561 379.372 136.318C379.372 132.045 378.751 128.182 377.508 124.727C376.296 121.242 374.447 118.47 371.963 116.409C369.478 114.348 366.387 113.318 362.69 113.318C358.902 113.318 355.751 114.348 353.235 116.409C350.751 118.47 348.887 121.242 347.644 124.727C346.432 128.182 345.826 132.045 345.826 136.318C345.826 140.561 346.432 144.409 347.644 147.864C348.887 151.318 350.751 154.076 353.235 156.136C355.751 158.167 358.902 159.182 362.69 159.182Z" fill="#1F2937"/>
<path d="M437.914 172.364C430.944 172.364 424.959 170.833 419.959 167.773C414.99 164.712 411.156 160.485 408.459 155.091C405.793 149.667 404.459 143.424 404.459 136.364C404.459 129.273 405.823 123.015 408.55 117.591C411.278 112.136 415.126 107.894 420.096 104.864C425.096 101.803 431.005 100.273 437.823 100.273C443.49 100.273 448.505 101.318 452.869 103.409C457.262 105.47 460.762 108.394 463.369 112.182C465.975 115.939 467.459 120.333 467.823 125.364H452.096C451.459 122 449.944 119.197 447.55 116.954C445.187 114.682 442.02 113.545 438.05 113.545C434.687 113.545 431.732 114.454 429.187 116.273C426.641 118.061 424.656 120.636 423.232 124C421.838 127.364 421.141 131.394 421.141 136.091C421.141 140.848 421.838 144.939 423.232 148.364C424.626 151.757 426.581 154.379 429.096 156.227C431.641 158.045 434.626 158.954 438.05 158.954C440.475 158.954 442.641 158.5 444.55 157.591C446.49 156.651 448.111 155.303 449.414 153.545C450.717 151.788 451.611 149.651 452.096 147.136H467.823C467.429 152.076 465.975 156.454 463.459 160.273C460.944 164.061 457.52 167.03 453.187 169.182C448.853 171.303 443.762 172.364 437.914 172.364Z" fill="#1F2937"/>
<path d="M493.774 149.091L493.729 129.227H496.365L521.456 101.182H540.684L509.82 135.545H506.411L493.774 149.091ZM478.774 171V77.909H495.229V171H478.774ZM522.593 171L499.865 139.227L510.956 127.636L542.274 171H522.593Z" fill="#1F2937"/>
<path d="M587.498 171V77.909H620.043C626.528 77.909 631.876 79.0302 636.089 81.2726C640.301 83.4848 643.437 86.4696 645.498 90.2272C647.558 93.9545 648.589 98.0908 648.589 102.636C648.589 106.636 647.876 109.939 646.452 112.545C645.058 115.151 643.21 117.212 640.907 118.727C638.634 120.242 636.164 121.364 633.498 122.091V123C636.346 123.182 639.21 124.182 642.089 126C644.967 127.818 647.376 130.424 649.316 133.818C651.255 137.212 652.225 141.364 652.225 146.273C652.225 150.939 651.164 155.136 649.043 158.864C646.922 162.591 643.573 165.545 638.998 167.727C634.422 169.909 628.467 171 621.134 171H587.498ZM598.77 161H621.134C628.498 161 633.725 159.576 636.816 156.727C639.937 153.848 641.498 150.364 641.498 146.273C641.498 143.121 640.695 140.212 639.089 137.545C637.483 134.848 635.195 132.697 632.225 131.091C629.255 129.454 625.74 128.636 621.679 128.636H598.77V161ZM598.77 118.818H619.679C623.073 118.818 626.134 118.151 628.861 116.818C631.619 115.485 633.801 113.606 635.407 111.182C637.043 108.757 637.861 105.909 637.861 102.636C637.861 98.5454 636.437 95.0757 633.589 92.2272C630.74 89.3484 626.225 87.909 620.043 87.909H598.77V118.818Z" fill="#1F2937"/>
<path d="M695.097 172.454C688.794 172.454 683.263 170.954 678.506 167.954C673.779 164.954 670.082 160.757 667.415 155.364C664.779 149.97 663.46 143.667 663.46 136.454C663.46 129.182 664.779 122.833 667.415 117.409C670.082 111.985 673.779 107.773 678.506 104.773C683.263 101.773 688.794 100.273 695.097 100.273C701.4 100.273 706.915 101.773 711.642 104.773C716.4 107.773 720.097 111.985 722.733 117.409C725.4 122.833 726.733 129.182 726.733 136.454C726.733 143.667 725.4 149.97 722.733 155.364C720.097 160.757 716.4 164.954 711.642 167.954C706.915 170.954 701.4 172.454 695.097 172.454ZM695.097 162.818C699.885 162.818 703.824 161.591 706.915 159.136C710.006 156.682 712.294 153.454 713.779 149.454C715.263 145.454 716.006 141.121 716.006 136.454C716.006 131.788 715.263 127.439 713.779 123.409C712.294 119.379 710.006 116.121 706.915 113.636C703.824 111.151 699.885 109.909 695.097 109.909C690.309 109.909 686.369 111.151 683.279 113.636C680.188 116.121 677.9 119.379 676.415 123.409C674.93 127.439 674.188 131.788 674.188 136.454C674.188 141.121 674.93 145.454 676.415 149.454C677.9 153.454 680.188 156.682 683.279 159.136C686.369 161.591 690.309 162.818 695.097 162.818Z" fill="#1F2937"/>
<path d="M768.912 172.454C762.609 172.454 757.078 170.954 752.321 167.954C747.594 164.954 743.897 160.757 741.23 155.364C738.594 149.97 737.275 143.667 737.275 136.454C737.275 129.182 738.594 122.833 741.23 117.409C743.897 111.985 747.594 107.773 752.321 104.773C757.078 101.773 762.609 100.273 768.912 100.273C775.215 100.273 780.73 101.773 785.457 104.773C790.215 107.773 793.912 111.985 796.548 117.409C799.215 122.833 800.548 129.182 800.548 136.454C800.548 143.667 799.215 149.97 796.548 155.364C793.912 160.757 790.215 164.954 785.457 167.954C780.73 170.954 775.215 172.454 768.912 172.454ZM768.912 162.818C773.7 162.818 777.639 161.591 780.73 159.136C783.821 156.682 786.109 153.454 787.594 149.454C789.078 145.454 789.821 141.121 789.821 136.454C789.821 131.788 789.078 127.439 787.594 123.409C786.109 119.379 783.821 116.121 780.73 113.636C777.639 111.151 773.7 109.909 768.912 109.909C764.124 109.909 760.184 111.151 757.094 113.636C754.003 116.121 751.715 119.379 750.23 123.409C748.745 127.439 748.003 131.788 748.003 136.454C748.003 141.121 748.745 145.454 750.23 149.454C751.715 153.454 754.003 156.682 757.094 159.136C760.184 161.591 764.124 162.818 768.912 162.818Z" fill="#1F2937"/>
<path d="M824.363 145.545L824.181 132.273H826.363L856.909 101.182H870.181L837.636 134.091H836.727L824.363 145.545ZM814.363 171V77.909H825.09V171H814.363ZM858.727 171L831.454 136.454L839.09 129L872.363 171H858.727Z" fill="#1F2937"/>
<path d="M891.428 145.545L891.246 132.273H893.428L923.974 101.182H937.246L904.701 134.091H903.792L891.428 145.545ZM881.428 171V77.909H892.155V171H881.428ZM925.792 171L898.519 136.454L906.155 129L939.428 171H925.792Z" fill="#1F2937"/>
<path d="M974.891 172.454C968.164 172.454 962.361 170.97 957.482 168C952.633 165 948.891 160.818 946.254 155.454C943.648 150.061 942.345 143.788 942.345 136.636C942.345 129.485 943.648 123.182 946.254 117.727C948.891 112.242 952.557 107.97 957.254 104.909C961.982 101.818 967.497 100.273 973.8 100.273C977.436 100.273 981.027 100.879 984.573 102.091C988.118 103.303 991.345 105.273 994.254 108C997.164 110.697 999.482 114.273 1001.21 118.727C1002.94 123.182 1003.8 128.667 1003.8 135.182V139.727H949.982V130.454H992.891C992.891 126.515 992.103 123 990.527 119.909C988.982 116.818 986.77 114.379 983.891 112.591C981.042 110.803 977.679 109.909 973.8 109.909C969.527 109.909 965.83 110.97 962.709 113.091C959.618 115.182 957.239 117.909 955.573 121.273C953.906 124.636 953.073 128.242 953.073 132.091V138.273C953.073 143.545 953.982 148.015 955.8 151.682C957.648 155.318 960.209 158.091 963.482 160C966.754 161.879 970.557 162.818 974.891 162.818C977.709 162.818 980.254 162.424 982.527 161.636C984.83 160.818 986.815 159.606 988.482 158C990.148 156.364 991.436 154.333 992.345 151.909L1002.71 154.818C1001.62 158.333 999.785 161.424 997.209 164.091C994.633 166.727 991.451 168.788 987.664 170.273C983.876 171.727 979.618 172.454 974.891 172.454Z" fill="#1F2937"/>
<path d="M1046.83 172.454C1040.1 172.454 1034.3 170.97 1029.42 168C1024.57 165 1020.83 160.818 1018.19 155.454C1015.59 150.061 1014.29 143.788 1014.29 136.636C1014.29 129.485 1015.59 123.182 1018.19 117.727C1020.83 112.242 1024.5 107.97 1029.19 104.909C1033.92 101.818 1039.44 100.273 1045.74 100.273C1049.38 100.273 1052.97 100.879 1056.51 102.091C1060.06 103.303 1063.29 105.273 1066.19 108C1069.1 110.697 1071.42 114.273 1073.15 118.727C1074.88 123.182 1075.74 128.667 1075.74 135.182V139.727H1021.92V130.454H1064.83C1064.83 126.515 1064.04 123 1062.47 119.909C1060.92 116.818 1058.71 114.379 1055.83 112.591C1052.98 110.803 1049.62 109.909 1045.74 109.909C1041.47 109.909 1037.77 110.97 1034.65 113.091C1031.56 115.182 1029.18 117.909 1027.51 121.273C1025.85 124.636 1025.01 128.242 1025.01 132.091V138.273C1025.01 143.545 1025.92 148.015 1027.74 151.682C1029.59 155.318 1032.15 158.091 1035.42 160C1038.69 161.879 1042.5 162.818 1046.83 162.818C1049.65 162.818 1052.19 162.424 1054.47 161.636C1056.77 160.818 1058.76 159.606 1060.42 158C1062.09 156.364 1063.38 154.333 1064.29 151.909L1074.65 154.818C1073.56 158.333 1071.72 161.424 1069.15 164.091C1066.57 166.727 1063.39 168.788 1059.6 170.273C1055.82 171.727 1051.56 172.454 1046.83 172.454Z" fill="#1F2937"/>
<path d="M1089.5 197.182V101.182H1099.86V112.273H1101.13C1101.92 111.061 1103.01 109.515 1104.41 107.636C1105.83 105.727 1107.86 104.03 1110.5 102.545C1113.16 101.03 1116.77 100.273 1121.32 100.273C1127.2 100.273 1132.38 101.742 1136.86 104.682C1141.35 107.621 1144.85 111.788 1147.36 117.182C1149.88 122.576 1151.13 128.939 1151.13 136.273C1151.13 143.667 1149.88 150.076 1147.36 155.5C1144.85 160.894 1141.36 165.076 1136.91 168.045C1132.45 170.985 1127.32 172.454 1121.5 172.454C1117.01 172.454 1113.42 171.712 1110.73 170.227C1108.03 168.712 1105.95 167 1104.5 165.091C1103.04 163.151 1101.92 161.545 1101.13 160.273H1100.23V197.182H1089.5ZM1100.04 136.091C1100.04 141.364 1100.82 146.015 1102.36 150.045C1103.91 154.045 1106.16 157.182 1109.13 159.454C1112.1 161.697 1115.74 162.818 1120.04 162.818C1124.53 162.818 1128.27 161.636 1131.27 159.273C1134.3 156.879 1136.57 153.667 1138.09 149.636C1139.63 145.576 1140.41 141.061 1140.41 136.091C1140.41 131.182 1139.65 126.757 1138.13 122.818C1136.65 118.848 1134.39 115.712 1131.36 113.409C1128.36 111.076 1124.59 109.909 1120.04 109.909C1115.68 109.909 1112.01 111.015 1109.04 113.227C1106.07 115.409 1103.83 118.47 1102.32 122.409C1100.8 126.318 1100.04 130.879 1100.04 136.091Z" fill="#1F2937"/>
<path d="M1164.94 171V101.182H1175.67V171H1164.94ZM1170.39 89.5454C1168.3 89.5454 1166.5 88.8332 1164.98 87.409C1163.5 85.9848 1162.76 84.2726 1162.76 82.2726C1162.76 80.2726 1163.5 78.5605 1164.98 77.1363C1166.5 75.712 1168.3 74.9999 1170.39 74.9999C1172.48 74.9999 1174.27 75.712 1175.76 77.1363C1177.27 78.5605 1178.03 80.2726 1178.03 82.2726C1178.03 84.2726 1177.27 85.9848 1175.76 87.409C1174.27 88.8332 1172.48 89.5454 1170.39 89.5454Z" fill="#1F2937"/>
<path d="M1203.48 129V171H1192.75V101.182H1203.12V112.091H1204.03C1205.66 108.545 1208.15 105.697 1211.48 103.545C1214.81 101.364 1219.12 100.273 1224.39 100.273C1229.12 100.273 1233.25 101.242 1236.8 103.182C1240.34 105.091 1243.1 108 1245.07 111.909C1247.04 115.788 1248.03 120.697 1248.03 126.636V171H1237.3V127.364C1237.3 121.879 1235.87 117.606 1233.03 114.545C1230.18 111.454 1226.27 109.909 1221.3 109.909C1217.87 109.909 1214.81 110.651 1212.12 112.136C1209.45 113.621 1207.34 115.788 1205.8 118.636C1204.25 121.485 1203.48 124.939 1203.48 129Z" fill="#1F2937"/>
<path d="M1293.25 198.636C1288.07 198.636 1283.61 197.97 1279.89 196.636C1276.16 195.333 1273.05 193.606 1270.57 191.454C1268.11 189.333 1266.16 187.061 1264.7 184.636L1273.25 178.636C1274.22 179.909 1275.45 181.364 1276.93 183C1278.42 184.667 1280.45 186.106 1283.02 187.318C1285.63 188.561 1289.04 189.182 1293.25 189.182C1298.89 189.182 1303.54 187.818 1307.2 185.091C1310.87 182.364 1312.7 178.091 1312.7 172.273V158.091H1311.8C1311.01 159.364 1309.89 160.939 1308.43 162.818C1307.01 164.667 1304.95 166.318 1302.25 167.773C1299.58 169.197 1295.98 169.909 1291.43 169.909C1285.8 169.909 1280.73 168.576 1276.25 165.909C1271.8 163.242 1268.27 159.364 1265.66 154.273C1263.08 149.182 1261.8 143 1261.8 135.727C1261.8 128.576 1263.05 122.348 1265.57 117.045C1268.08 111.712 1271.58 107.591 1276.07 104.682C1280.55 101.742 1285.73 100.273 1291.61 100.273C1296.16 100.273 1299.77 101.03 1302.43 102.545C1305.13 104.03 1307.19 105.727 1308.61 107.636C1310.07 109.515 1311.19 111.061 1311.98 112.273H1313.07V101.182H1323.43V173C1323.43 179 1322.07 183.879 1319.34 187.636C1316.64 191.424 1313.01 194.197 1308.43 195.954C1303.89 197.742 1298.83 198.636 1293.25 198.636ZM1292.89 160.273C1297.19 160.273 1300.83 159.288 1303.8 157.318C1306.77 155.348 1309.02 152.515 1310.57 148.818C1312.11 145.121 1312.89 140.697 1312.89 135.545C1312.89 130.515 1312.13 126.076 1310.61 122.227C1309.1 118.379 1306.86 115.364 1303.89 113.182C1300.92 111 1297.25 109.909 1292.89 109.909C1288.34 109.909 1284.55 111.061 1281.52 113.364C1278.52 115.667 1276.27 118.757 1274.75 122.636C1273.27 126.515 1272.52 130.818 1272.52 135.545C1272.52 140.394 1273.28 144.682 1274.8 148.409C1276.34 152.106 1278.61 155.015 1281.61 157.136C1284.64 159.227 1288.4 160.273 1292.89 160.273Z" fill="#1F2937"/>
</svg>
