<svg width="1012" height="265" viewBox="0 0 1012 265" fill="none" xmlns="http://www.w3.org/2000/svg">
<path d="M0 101C0 89.9543 8.95431 81 20 81H111C122.046 81 131 89.9543 131 101V222C131 233.046 122.046 242 111 242H20C8.95431 242 0 233.046 0 222V101Z" fill="#2C68D7"/>
<path d="M87 18C87 8.05888 95.0589 0 105 0H200C209.941 0 218 8.05888 218 18V196C218 205.941 209.941 214 200 214H105C95.0589 214 87 205.941 87 196V18Z" fill="#002669"/>
<path d="M87.8808 196.165C82.3009 201.562 77.4155 202.087 72.6473 195.899C68.0282 181.168 58.0317 160.237 46.1218 144.157C41.963 137.98 49.3922 131.395 62.5527 145.665C69.7263 153.726 75.6705 162.377 80.3961 171.006C101.08 138.402 137.082 101.181 170.348 81.0062C179.584 75.6732 180.76 78.1356 181.926 81.2083C143.026 109.832 107.527 153.165 87.8808 196.165Z" fill="white"/>
<path d="M273.182 115V21.909H308.091C315.242 21.909 321.242 23.1514 326.091 25.6363C330.97 28.1211 334.651 31.606 337.136 36.0908C339.651 40.5454 340.909 45.7423 340.909 51.6817C340.909 57.6514 339.636 62.8332 337.091 67.2272C334.576 71.5908 330.864 74.9696 325.954 77.3636C321.045 79.7272 315.015 80.909 307.864 80.909H283V66.909H305.591C309.773 66.909 313.197 66.3332 315.864 65.1817C318.53 63.9999 320.5 62.2878 321.773 60.0454C323.076 57.7726 323.727 54.9848 323.727 51.6817C323.727 48.3787 323.076 45.5605 321.773 43.2272C320.47 40.8636 318.485 39.0757 315.818 37.8636C313.151 36.6211 309.712 35.9999 305.5 35.9999H290.045V115H273.182ZM321.273 72.8181L344.318 115H325.5L302.864 72.8181H321.273Z" fill="#1F2937"/>
<path d="M382.599 116.364C375.781 116.364 369.872 114.864 364.872 111.864C359.872 108.864 355.993 104.667 353.235 99.2726C350.508 93.8787 349.144 87.5757 349.144 80.3636C349.144 73.1514 350.508 66.8333 353.235 61.409C355.993 55.9848 359.872 51.7726 364.872 48.7726C369.872 45.7726 375.781 44.2726 382.599 44.2726C389.417 44.2726 395.326 45.7726 400.326 48.7726C405.326 51.7726 409.19 55.9848 411.917 61.409C414.675 66.8333 416.054 73.1514 416.054 80.3636C416.054 87.5757 414.675 93.8787 411.917 99.2726C409.19 104.667 405.326 108.864 400.326 111.864C395.326 114.864 389.417 116.364 382.599 116.364ZM382.69 103.182C386.387 103.182 389.478 102.167 391.963 100.136C394.447 98.0757 396.296 95.3181 397.508 91.8636C398.751 88.409 399.372 84.5605 399.372 80.3181C399.372 76.0454 398.751 72.1817 397.508 68.7272C396.296 65.2423 394.447 62.4696 391.963 60.409C389.478 58.3484 386.387 57.3181 382.69 57.3181C378.902 57.3181 375.751 58.3484 373.235 60.409C370.751 62.4696 368.887 65.2423 367.644 68.7272C366.432 72.1817 365.826 76.0454 365.826 80.3181C365.826 84.5605 366.432 88.409 367.644 91.8636C368.887 95.3181 370.751 98.0757 373.235 100.136C375.751 102.167 378.902 103.182 382.69 103.182Z" fill="#1F2937"/>
<path d="M457.914 116.364C450.944 116.364 444.959 114.833 439.959 111.773C434.99 108.712 431.156 104.485 428.459 99.0908C425.793 93.6666 424.459 87.4242 424.459 80.3636C424.459 73.2726 425.823 67.0151 428.55 61.5908C431.278 56.1363 435.126 51.8939 440.096 48.8636C445.096 45.8029 451.005 44.2726 457.823 44.2726C463.49 44.2726 468.505 45.3181 472.869 47.409C477.262 49.4696 480.762 52.3939 483.369 56.1817C485.975 59.9393 487.459 64.3333 487.823 69.3636H472.096C471.459 65.9999 469.944 63.1969 467.55 60.9545C465.187 58.6817 462.02 57.5454 458.05 57.5454C454.687 57.5454 451.732 58.4545 449.187 60.2726C446.641 62.0605 444.656 64.6363 443.232 67.9999C441.838 71.3636 441.141 75.3939 441.141 80.0908C441.141 84.8484 441.838 88.9393 443.232 92.3636C444.626 95.7575 446.581 98.3787 449.096 100.227C451.641 102.045 454.626 102.954 458.05 102.954C460.475 102.954 462.641 102.5 464.55 101.591C466.49 100.651 468.111 99.3029 469.414 97.5454C470.717 95.7878 471.611 93.6514 472.096 91.1363H487.823C487.429 96.0757 485.975 100.454 483.459 104.273C480.944 108.061 477.52 111.03 473.187 113.182C468.853 115.303 463.762 116.364 457.914 116.364Z" fill="#1F2937"/>
<path d="M513.774 93.0908L513.729 73.2272H516.365L541.456 45.1817H560.684L529.82 79.5454H526.411L513.774 93.0908ZM498.774 115V21.909H515.229V115H498.774ZM542.593 115L519.865 83.2272L530.956 71.6363L562.274 115H542.593Z" fill="#1F2937"/>
<path d="M275.273 237V143.909H307.818C314.303 143.909 319.651 145.03 323.864 147.273C328.076 149.485 331.212 152.47 333.273 156.227C335.333 159.954 336.364 164.091 336.364 168.636C336.364 172.636 335.651 175.939 334.227 178.545C332.833 181.151 330.985 183.212 328.682 184.727C326.409 186.242 323.939 187.364 321.273 188.091V189C324.121 189.182 326.985 190.182 329.864 192C332.742 193.818 335.151 196.424 337.091 199.818C339.03 203.212 340 207.364 340 212.273C340 216.939 338.939 221.136 336.818 224.864C334.697 228.591 331.348 231.545 326.773 233.727C322.197 235.909 316.242 237 308.909 237H275.273ZM286.545 227H308.909C316.273 227 321.5 225.576 324.591 222.727C327.712 219.848 329.273 216.364 329.273 212.273C329.273 209.121 328.47 206.212 326.864 203.545C325.257 200.848 322.97 198.697 320 197.091C317.03 195.454 313.515 194.636 309.454 194.636H286.545V227ZM286.545 184.818H307.454C310.848 184.818 313.909 184.151 316.636 182.818C319.394 181.485 321.576 179.606 323.182 177.182C324.818 174.757 325.636 171.909 325.636 168.636C325.636 164.545 324.212 161.076 321.364 158.227C318.515 155.348 314 153.909 307.818 153.909H286.545V184.818Z" fill="#1F2937"/>
<path d="M382.872 238.454C376.569 238.454 371.038 236.954 366.281 233.954C361.554 230.954 357.857 226.757 355.19 221.364C352.554 215.97 351.235 209.667 351.235 202.454C351.235 195.182 352.554 188.833 355.19 183.409C357.857 177.985 361.554 173.773 366.281 170.773C371.038 167.773 376.569 166.273 382.872 166.273C389.175 166.273 394.69 167.773 399.417 170.773C404.175 173.773 407.872 177.985 410.508 183.409C413.175 188.833 414.508 195.182 414.508 202.454C414.508 209.667 413.175 215.97 410.508 221.364C407.872 226.757 404.175 230.954 399.417 233.954C394.69 236.954 389.175 238.454 382.872 238.454ZM382.872 228.818C387.66 228.818 391.599 227.591 394.69 225.136C397.781 222.682 400.069 219.454 401.554 215.454C403.038 211.454 403.781 207.121 403.781 202.454C403.781 197.788 403.038 193.439 401.554 189.409C400.069 185.379 397.781 182.121 394.69 179.636C391.599 177.151 387.66 175.909 382.872 175.909C378.084 175.909 374.144 177.151 371.054 179.636C367.963 182.121 365.675 185.379 364.19 189.409C362.705 193.439 361.963 197.788 361.963 202.454C361.963 207.121 362.705 211.454 364.19 215.454C365.675 219.454 367.963 222.682 371.054 225.136C374.144 227.591 378.084 228.818 382.872 228.818Z" fill="#1F2937"/>
<path d="M456.687 238.454C450.384 238.454 444.853 236.954 440.096 233.954C435.369 230.954 431.672 226.757 429.005 221.364C426.369 215.97 425.05 209.667 425.05 202.454C425.05 195.182 426.369 188.833 429.005 183.409C431.672 177.985 435.369 173.773 440.096 170.773C444.853 167.773 450.384 166.273 456.687 166.273C462.99 166.273 468.505 167.773 473.232 170.773C477.99 173.773 481.687 177.985 484.323 183.409C486.99 188.833 488.323 195.182 488.323 202.454C488.323 209.667 486.99 215.97 484.323 221.364C481.687 226.757 477.99 230.954 473.232 233.954C468.505 236.954 462.99 238.454 456.687 238.454ZM456.687 228.818C461.475 228.818 465.414 227.591 468.505 225.136C471.596 222.682 473.884 219.454 475.369 215.454C476.853 211.454 477.596 207.121 477.596 202.454C477.596 197.788 476.853 193.439 475.369 189.409C473.884 185.379 471.596 182.121 468.505 179.636C465.414 177.151 461.475 175.909 456.687 175.909C451.899 175.909 447.959 177.151 444.869 179.636C441.778 182.121 439.49 185.379 438.005 189.409C436.52 193.439 435.778 197.788 435.778 202.454C435.778 207.121 436.52 211.454 438.005 215.454C439.49 219.454 441.778 222.682 444.869 225.136C447.959 227.591 451.899 228.818 456.687 228.818Z" fill="#1F2937"/>
<path d="M512.138 211.545L511.956 198.273H514.138L544.684 167.182H557.956L525.411 200.091H524.502L512.138 211.545ZM502.138 237V143.909H512.865V237H502.138ZM546.502 237L519.229 202.454L526.865 195L560.138 237H546.502Z" fill="#1F2937"/>
<path d="M579.203 211.545L579.021 198.273H581.203L611.749 167.182H625.021L592.476 200.091H591.567L579.203 211.545ZM569.203 237V143.909H579.93V237H569.203ZM613.567 237L586.294 202.454L593.93 195L627.203 237H613.567Z" fill="#1F2937"/>
<path d="M662.666 238.454C655.939 238.454 650.136 236.97 645.257 234C640.408 231 636.666 226.818 634.029 221.454C631.423 216.061 630.12 209.788 630.12 202.636C630.12 195.485 631.423 189.182 634.029 183.727C636.666 178.242 640.333 173.97 645.029 170.909C649.757 167.818 655.272 166.273 661.575 166.273C665.211 166.273 668.802 166.879 672.348 168.091C675.893 169.303 679.12 171.273 682.029 174C684.939 176.697 687.257 180.273 688.984 184.727C690.711 189.182 691.575 194.667 691.575 201.182V205.727H637.757V196.454H680.666C680.666 192.515 679.878 189 678.302 185.909C676.757 182.818 674.545 180.379 671.666 178.591C668.817 176.803 665.454 175.909 661.575 175.909C657.302 175.909 653.605 176.97 650.484 179.091C647.393 181.182 645.014 183.909 643.348 187.273C641.681 190.636 640.848 194.242 640.848 198.091V204.273C640.848 209.545 641.757 214.015 643.575 217.682C645.423 221.318 647.984 224.091 651.257 226C654.53 227.879 658.332 228.818 662.666 228.818C665.484 228.818 668.029 228.424 670.302 227.636C672.605 226.818 674.59 225.606 676.257 224C677.923 222.364 679.211 220.333 680.12 217.909L690.484 220.818C689.393 224.333 687.56 227.424 684.984 230.091C682.408 232.727 679.226 234.788 675.439 236.273C671.651 237.727 667.393 238.454 662.666 238.454Z" fill="#1F2937"/>
<path d="M734.606 238.454C727.879 238.454 722.076 236.97 717.197 234C712.348 231 708.606 226.818 705.969 221.454C703.363 216.061 702.06 209.788 702.06 202.636C702.06 195.485 703.363 189.182 705.969 183.727C708.606 178.242 712.273 173.97 716.969 170.909C721.697 167.818 727.212 166.273 733.515 166.273C737.151 166.273 740.742 166.879 744.288 168.091C747.833 169.303 751.06 171.273 753.969 174C756.879 176.697 759.197 180.273 760.924 184.727C762.651 189.182 763.515 194.667 763.515 201.182V205.727H709.697V196.454H752.606C752.606 192.515 751.818 189 750.242 185.909C748.697 182.818 746.485 180.379 743.606 178.591C740.757 176.803 737.394 175.909 733.515 175.909C729.242 175.909 725.545 176.97 722.424 179.091C719.333 181.182 716.954 183.909 715.288 187.273C713.621 190.636 712.788 194.242 712.788 198.091V204.273C712.788 209.545 713.697 214.015 715.515 217.682C717.363 221.318 719.924 224.091 723.197 226C726.47 227.879 730.273 228.818 734.606 228.818C737.424 228.818 739.969 228.424 742.242 227.636C744.545 226.818 746.53 225.606 748.197 224C749.863 222.364 751.151 220.333 752.06 217.909L762.424 220.818C761.333 224.333 759.5 227.424 756.924 230.091C754.348 232.727 751.166 234.788 747.379 236.273C743.591 237.727 739.333 238.454 734.606 238.454Z" fill="#1F2937"/>
<path d="M777.273 263.182V167.182H787.637V178.273H788.909C789.697 177.061 790.788 175.515 792.182 173.636C793.606 171.727 795.637 170.03 798.273 168.545C800.94 167.03 804.546 166.273 809.091 166.273C814.97 166.273 820.152 167.742 824.637 170.682C829.122 173.621 832.622 177.788 835.137 183.182C837.652 188.576 838.909 194.939 838.909 202.273C838.909 209.667 837.652 216.076 835.137 221.5C832.622 226.894 829.137 231.076 824.682 234.045C820.228 236.985 815.091 238.454 809.273 238.454C804.788 238.454 801.197 237.712 798.5 236.227C795.803 234.712 793.728 233 792.273 231.091C790.819 229.151 789.697 227.545 788.909 226.273H788V263.182H777.273ZM787.819 202.091C787.819 207.364 788.591 212.015 790.137 216.045C791.682 220.045 793.94 223.182 796.909 225.454C799.879 227.697 803.516 228.818 807.819 228.818C812.303 228.818 816.046 227.636 819.046 225.273C822.076 222.879 824.349 219.667 825.864 215.636C827.409 211.576 828.182 207.061 828.182 202.091C828.182 197.182 827.425 192.757 825.909 188.818C824.425 184.848 822.167 181.712 819.137 179.409C816.137 177.076 812.364 175.909 807.819 175.909C803.455 175.909 799.788 177.015 796.819 179.227C793.849 181.409 791.606 184.47 790.091 188.409C788.576 192.318 787.819 196.879 787.819 202.091Z" fill="#1F2937"/>
<path d="M852.713 237V167.182H863.44V237H852.713ZM858.168 155.545C856.077 155.545 854.274 154.833 852.759 153.409C851.274 151.985 850.531 150.273 850.531 148.273C850.531 146.273 851.274 144.561 852.759 143.136C854.274 141.712 856.077 141 858.168 141C860.259 141 862.046 141.712 863.531 143.136C865.046 144.561 865.804 146.273 865.804 148.273C865.804 150.273 865.046 151.985 863.531 153.409C862.046 154.833 860.259 155.545 858.168 155.545Z" fill="#1F2937"/>
<path d="M891.255 195V237H880.528V167.182H890.892V178.091H891.801C893.437 174.545 895.922 171.697 899.255 169.545C902.589 167.364 906.892 166.273 912.164 166.273C916.892 166.273 921.028 167.242 924.574 169.182C928.119 171.091 930.877 174 932.846 177.909C934.816 181.788 935.801 186.697 935.801 192.636V237H925.074V193.364C925.074 187.879 923.649 183.606 920.801 180.545C917.952 177.454 914.043 175.909 909.074 175.909C905.649 175.909 902.589 176.651 899.892 178.136C897.225 179.621 895.119 181.788 893.574 184.636C892.028 187.485 891.255 190.939 891.255 195Z" fill="#1F2937"/>
<path d="M981.025 264.636C975.843 264.636 971.389 263.97 967.661 262.636C963.934 261.333 960.828 259.606 958.343 257.454C955.889 255.333 953.934 253.061 952.479 250.636L961.025 244.636C961.995 245.909 963.222 247.364 964.707 249C966.192 250.667 968.222 252.106 970.798 253.318C973.404 254.561 976.813 255.182 981.025 255.182C986.661 255.182 991.313 253.818 994.979 251.091C998.646 248.364 1000.48 244.091 1000.48 238.273V224.091H999.57C998.782 225.364 997.661 226.939 996.207 228.818C994.783 230.667 992.722 232.318 990.025 233.773C987.358 235.197 983.752 235.909 979.207 235.909C973.57 235.909 968.51 234.576 964.025 231.909C959.57 229.242 956.04 225.364 953.434 220.273C950.858 215.182 949.57 209 949.57 201.727C949.57 194.576 950.828 188.348 953.343 183.045C955.858 177.712 959.358 173.591 963.843 170.682C968.328 167.742 973.51 166.273 979.389 166.273C983.934 166.273 987.54 167.03 990.207 168.545C992.904 170.03 994.964 171.727 996.389 173.636C997.843 175.515 998.964 177.061 999.752 178.273H1000.84V167.182H1011.21V239C1011.21 245 1009.84 249.879 1007.12 253.636C1004.42 257.424 1000.78 260.197 996.207 261.954C991.661 263.742 986.601 264.636 981.025 264.636ZM980.661 226.273C984.964 226.273 988.601 225.288 991.57 223.318C994.54 221.348 996.798 218.515 998.343 214.818C999.889 211.121 1000.66 206.697 1000.66 201.545C1000.66 196.515 999.904 192.076 998.389 188.227C996.873 184.379 994.631 181.364 991.661 179.182C988.692 177 985.025 175.909 980.661 175.909C976.116 175.909 972.328 177.061 969.298 179.364C966.298 181.667 964.04 184.757 962.525 188.636C961.04 192.515 960.298 196.818 960.298 201.545C960.298 206.394 961.055 210.682 962.57 214.409C964.116 218.106 966.389 221.015 969.389 223.136C972.419 225.227 976.176 226.273 980.661 226.273Z" fill="#1F2937"/>
</svg>
