<svg width="1341" height="242" viewBox="0 0 1341 242" fill="none" xmlns="http://www.w3.org/2000/svg">
<path d="M0 101C0 89.9543 8.95431 81 20 81H105C116.046 81 125 89.9543 125 101V222C125 233.046 116.046 242 105 242H20C8.95431 242 0 233.046 0 222V101Z" fill="#4676AF"/>
<path d="M87 18C87 8.05888 95.0589 0 105 0H194C203.941 0 212 8.05888 212 18V196C212 205.941 203.941 214 194 214H105C95.0589 214 87 205.941 87 196V18Z" fill="#4A5575"/>
<path d="M87.8779 183.458C83.3223 187.864 79.3337 188.292 75.4408 183.24C71.6697 171.213 63.5082 154.125 53.7847 140.997C50.3893 135.954 56.4547 130.577 67.1993 142.228C73.056 148.809 77.9091 155.872 81.7672 162.917C98.6537 136.298 128.047 105.91 155.207 89.4385C162.747 85.0845 163.707 87.0949 164.659 89.6035C132.9 112.972 103.917 148.351 87.8779 183.458Z" fill="white"/>
<path d="M267.182 171V77.909H302.091C309.242 77.909 315.242 79.1514 320.091 81.6363C324.97 84.1211 328.651 87.606 331.136 92.0908C333.651 96.5454 334.909 101.742 334.909 107.682C334.909 113.651 333.636 118.833 331.091 123.227C328.576 127.591 324.864 130.97 319.954 133.364C315.045 135.727 309.015 136.909 301.864 136.909H277V122.909H299.591C303.773 122.909 307.197 122.333 309.864 121.182C312.53 120 314.5 118.288 315.773 116.045C317.076 113.773 317.727 110.985 317.727 107.682C317.727 104.379 317.076 101.561 315.773 99.2272C314.47 96.8636 312.485 95.0757 309.818 93.8635C307.151 92.6211 303.712 91.9999 299.5 91.9999H284.045V171H267.182ZM315.273 128.818L338.318 171H319.5L296.864 128.818H315.273Z" fill="white"/>
<path d="M376.599 172.364C369.781 172.364 363.872 170.864 358.872 167.864C353.872 164.864 349.993 160.667 347.235 155.273C344.508 149.879 343.144 143.576 343.144 136.364C343.144 129.151 344.508 122.833 347.235 117.409C349.993 111.985 353.872 107.773 358.872 104.773C363.872 101.773 369.781 100.273 376.599 100.273C383.417 100.273 389.326 101.773 394.326 104.773C399.326 107.773 403.19 111.985 405.917 117.409C408.675 122.833 410.054 129.151 410.054 136.364C410.054 143.576 408.675 149.879 405.917 155.273C403.19 160.667 399.326 164.864 394.326 167.864C389.326 170.864 383.417 172.364 376.599 172.364ZM376.69 159.182C380.387 159.182 383.478 158.167 385.963 156.136C388.447 154.076 390.296 151.318 391.508 147.864C392.751 144.409 393.372 140.561 393.372 136.318C393.372 132.045 392.751 128.182 391.508 124.727C390.296 121.242 388.447 118.47 385.963 116.409C383.478 114.348 380.387 113.318 376.69 113.318C372.902 113.318 369.751 114.348 367.235 116.409C364.751 118.47 362.887 121.242 361.644 124.727C360.432 128.182 359.826 132.045 359.826 136.318C359.826 140.561 360.432 144.409 361.644 147.864C362.887 151.318 364.751 154.076 367.235 156.136C369.751 158.167 372.902 159.182 376.69 159.182Z" fill="white"/>
<path d="M451.914 172.364C444.944 172.364 438.959 170.833 433.959 167.773C428.99 164.712 425.156 160.485 422.459 155.091C419.793 149.667 418.459 143.424 418.459 136.364C418.459 129.273 419.823 123.015 422.55 117.591C425.278 112.136 429.126 107.894 434.096 104.864C439.096 101.803 445.005 100.273 451.823 100.273C457.49 100.273 462.505 101.318 466.869 103.409C471.262 105.47 474.762 108.394 477.369 112.182C479.975 115.939 481.459 120.333 481.823 125.364H466.096C465.459 122 463.944 119.197 461.55 116.954C459.187 114.682 456.02 113.545 452.05 113.545C448.687 113.545 445.732 114.454 443.187 116.273C440.641 118.061 438.656 120.636 437.232 124C435.838 127.364 435.141 131.394 435.141 136.091C435.141 140.848 435.838 144.939 437.232 148.364C438.626 151.757 440.581 154.379 443.096 156.227C445.641 158.045 448.626 158.954 452.05 158.954C454.475 158.954 456.641 158.5 458.55 157.591C460.49 156.651 462.111 155.303 463.414 153.545C464.717 151.788 465.611 149.651 466.096 147.136H481.823C481.429 152.076 479.975 156.454 477.459 160.273C474.944 164.061 471.52 167.03 467.187 169.182C462.853 171.303 457.762 172.364 451.914 172.364Z" fill="white"/>
<path d="M507.774 149.091L507.729 129.227H510.365L535.456 101.182H554.684L523.82 135.545H520.411L507.774 149.091ZM492.774 171V77.909H509.229V171H492.774ZM536.593 171L513.865 139.227L524.956 127.636L556.274 171H536.593Z" fill="white"/>
<path d="M604.493 171V77.909H637.038C643.523 77.909 648.871 79.0302 653.084 81.2726C657.296 83.4848 660.432 86.4696 662.493 90.2272C664.553 93.9545 665.584 98.0908 665.584 102.636C665.584 106.636 664.871 109.939 663.447 112.545C662.053 115.151 660.205 117.212 657.902 118.727C655.629 120.242 653.159 121.364 650.493 122.091V123C653.341 123.182 656.205 124.182 659.084 126C661.962 127.818 664.371 130.424 666.311 133.818C668.25 137.212 669.22 141.364 669.22 146.273C669.22 150.939 668.159 155.136 666.038 158.864C663.917 162.591 660.568 165.545 655.993 167.727C651.417 169.909 645.462 171 638.129 171H604.493ZM615.765 161H638.129C645.493 161 650.72 159.576 653.811 156.727C656.932 153.848 658.493 150.364 658.493 146.273C658.493 143.121 657.69 140.212 656.084 137.545C654.477 134.848 652.19 132.697 649.22 131.091C646.25 129.454 642.735 128.636 638.674 128.636H615.765V161ZM615.765 118.818H636.674C640.068 118.818 643.129 118.151 645.856 116.818C648.614 115.485 650.796 113.606 652.402 111.182C654.038 108.757 654.856 105.909 654.856 102.636C654.856 98.5454 653.432 95.0757 650.584 92.2272C647.735 89.3484 643.22 87.909 637.038 87.909H615.765V118.818Z" fill="white"/>
<path d="M712.092 172.454C705.789 172.454 700.258 170.954 695.501 167.954C690.774 164.954 687.077 160.757 684.41 155.364C681.774 149.97 680.455 143.667 680.455 136.454C680.455 129.182 681.774 122.833 684.41 117.409C687.077 111.985 690.774 107.773 695.501 104.773C700.258 101.773 705.789 100.273 712.092 100.273C718.395 100.273 723.91 101.773 728.637 104.773C733.395 107.773 737.092 111.985 739.728 117.409C742.395 122.833 743.728 129.182 743.728 136.454C743.728 143.667 742.395 149.97 739.728 155.364C737.092 160.757 733.395 164.954 728.637 167.954C723.91 170.954 718.395 172.454 712.092 172.454ZM712.092 162.818C716.88 162.818 720.819 161.591 723.91 159.136C727.001 156.682 729.289 153.454 730.774 149.454C732.258 145.454 733.001 141.121 733.001 136.454C733.001 131.788 732.258 127.439 730.774 123.409C729.289 119.379 727.001 116.121 723.91 113.636C720.819 111.151 716.88 109.909 712.092 109.909C707.304 109.909 703.364 111.151 700.274 113.636C697.183 116.121 694.895 119.379 693.41 123.409C691.925 127.439 691.183 131.788 691.183 136.454C691.183 141.121 691.925 145.454 693.41 149.454C694.895 153.454 697.183 156.682 700.274 159.136C703.364 161.591 707.304 162.818 712.092 162.818Z" fill="white"/>
<path d="M785.907 172.454C779.604 172.454 774.073 170.954 769.316 167.954C764.589 164.954 760.892 160.757 758.225 155.364C755.589 149.97 754.27 143.667 754.27 136.454C754.27 129.182 755.589 122.833 758.225 117.409C760.892 111.985 764.589 107.773 769.316 104.773C774.073 101.773 779.604 100.273 785.907 100.273C792.21 100.273 797.725 101.773 802.452 104.773C807.21 107.773 810.907 111.985 813.543 117.409C816.21 122.833 817.543 129.182 817.543 136.454C817.543 143.667 816.21 149.97 813.543 155.364C810.907 160.757 807.21 164.954 802.452 167.954C797.725 170.954 792.21 172.454 785.907 172.454ZM785.907 162.818C790.695 162.818 794.634 161.591 797.725 159.136C800.816 156.682 803.104 153.454 804.589 149.454C806.073 145.454 806.816 141.121 806.816 136.454C806.816 131.788 806.073 127.439 804.589 123.409C803.104 119.379 800.816 116.121 797.725 113.636C794.634 111.151 790.695 109.909 785.907 109.909C781.119 109.909 777.179 111.151 774.089 113.636C770.998 116.121 768.71 119.379 767.225 123.409C765.74 127.439 764.998 131.788 764.998 136.454C764.998 141.121 765.74 145.454 767.225 149.454C768.71 153.454 770.998 156.682 774.089 159.136C777.179 161.591 781.119 162.818 785.907 162.818Z" fill="white"/>
<path d="M841.358 145.545L841.176 132.273H843.358L873.904 101.182H887.176L854.631 134.091H853.722L841.358 145.545ZM831.358 171V77.909H842.085V171H831.358ZM875.722 171L848.449 136.454L856.085 129L889.358 171H875.722Z" fill="white"/>
<path d="M908.423 145.545L908.241 132.273H910.423L940.969 101.182H954.241L921.696 134.091H920.787L908.423 145.545ZM898.423 171V77.909H909.15V171H898.423ZM942.787 171L915.514 136.454L923.15 129L956.423 171H942.787Z" fill="white"/>
<path d="M991.886 172.454C985.159 172.454 979.356 170.97 974.477 168C969.628 165 965.886 160.818 963.249 155.454C960.643 150.061 959.34 143.788 959.34 136.636C959.34 129.485 960.643 123.182 963.249 117.727C965.886 112.242 969.552 107.97 974.249 104.909C978.977 101.818 984.492 100.273 990.795 100.273C994.431 100.273 998.022 100.879 1001.57 102.091C1005.11 103.303 1008.34 105.273 1011.25 108C1014.16 110.697 1016.48 114.273 1018.2 118.727C1019.93 123.182 1020.79 128.667 1020.79 135.182V139.727H966.977V130.454H1009.89C1009.89 126.515 1009.1 123 1007.52 119.909C1005.98 116.818 1003.76 114.379 1000.89 112.591C998.037 110.803 994.674 109.909 990.795 109.909C986.522 109.909 982.825 110.97 979.704 113.091C976.613 115.182 974.234 117.909 972.568 121.273C970.901 124.636 970.068 128.242 970.068 132.091V138.273C970.068 143.545 970.977 148.015 972.795 151.682C974.643 155.318 977.204 158.091 980.477 160C983.749 161.879 987.552 162.818 991.886 162.818C994.704 162.818 997.249 162.424 999.522 161.636C1001.83 160.818 1003.81 159.606 1005.48 158C1007.14 156.364 1008.43 154.333 1009.34 151.909L1019.7 154.818C1018.61 158.333 1016.78 161.424 1014.2 164.091C1011.63 166.727 1008.45 168.788 1004.66 170.273C1000.87 171.727 996.613 172.454 991.886 172.454Z" fill="white"/>
<path d="M1063.83 172.454C1057.1 172.454 1051.3 170.97 1046.42 168C1041.57 165 1037.83 160.818 1035.19 155.454C1032.58 150.061 1031.28 143.788 1031.28 136.636C1031.28 129.485 1032.58 123.182 1035.19 117.727C1037.83 112.242 1041.49 107.97 1046.19 104.909C1050.92 101.818 1056.43 100.273 1062.73 100.273C1066.37 100.273 1069.96 100.879 1073.51 102.091C1077.05 103.303 1080.28 105.273 1083.19 108C1086.1 110.697 1088.42 114.273 1090.14 118.727C1091.87 123.182 1092.73 128.667 1092.73 135.182V139.727H1038.92V130.454H1081.83C1081.83 126.515 1081.04 123 1079.46 119.909C1077.92 116.818 1075.7 114.379 1072.83 112.591C1069.98 110.803 1066.61 109.909 1062.73 109.909C1058.46 109.909 1054.77 110.97 1051.64 113.091C1048.55 115.182 1046.17 117.909 1044.51 121.273C1042.84 124.636 1042.01 128.242 1042.01 132.091V138.273C1042.01 143.545 1042.92 148.015 1044.73 151.682C1046.58 155.318 1049.14 158.091 1052.42 160C1055.69 161.879 1059.49 162.818 1063.83 162.818C1066.64 162.818 1069.19 162.424 1071.46 161.636C1073.77 160.818 1075.75 159.606 1077.42 158C1079.08 156.364 1080.37 154.333 1081.28 151.909L1091.64 154.818C1090.55 158.333 1088.72 161.424 1086.14 164.091C1083.57 166.727 1080.39 168.788 1076.6 170.273C1072.81 171.727 1068.55 172.454 1063.83 172.454Z" fill="white"/>
<path d="M1106.49 197.182V101.182H1116.86V112.273H1118.13C1118.92 111.061 1120.01 109.515 1121.4 107.636C1122.83 105.727 1124.86 104.03 1127.49 102.545C1130.16 101.03 1133.77 100.273 1138.31 100.273C1144.19 100.273 1149.37 101.742 1153.86 104.682C1158.34 107.621 1161.84 111.788 1164.36 117.182C1166.87 122.576 1168.13 128.939 1168.13 136.273C1168.13 143.667 1166.87 150.076 1164.36 155.5C1161.84 160.894 1158.36 165.076 1153.9 168.045C1149.45 170.985 1144.31 172.454 1138.49 172.454C1134.01 172.454 1130.42 171.712 1127.72 170.227C1125.02 168.712 1122.95 167 1121.49 165.091C1120.04 163.151 1118.92 161.545 1118.13 160.273H1117.22V197.182H1106.49ZM1117.04 136.091C1117.04 141.364 1117.81 146.015 1119.36 150.045C1120.9 154.045 1123.16 157.182 1126.13 159.454C1129.1 161.697 1132.74 162.818 1137.04 162.818C1141.52 162.818 1145.27 161.636 1148.27 159.273C1151.3 156.879 1153.57 153.667 1155.08 149.636C1156.63 145.576 1157.4 141.061 1157.4 136.091C1157.4 131.182 1156.64 126.757 1155.13 122.818C1153.64 118.848 1151.39 115.712 1148.36 113.409C1145.36 111.076 1141.58 109.909 1137.04 109.909C1132.67 109.909 1129.01 111.015 1126.04 113.227C1123.07 115.409 1120.83 118.47 1119.31 122.409C1117.8 126.318 1117.04 130.879 1117.04 136.091Z" fill="white"/>
<path d="M1181.93 171V101.182H1192.66V171H1181.93ZM1187.39 89.5454C1185.3 89.5454 1183.49 88.8332 1181.98 87.409C1180.49 85.9848 1179.75 84.2726 1179.75 82.2726C1179.75 80.2726 1180.49 78.5605 1181.98 77.1363C1183.49 75.712 1185.3 74.9999 1187.39 74.9999C1189.48 74.9999 1191.27 75.712 1192.75 77.1363C1194.27 78.5605 1195.02 80.2726 1195.02 82.2726C1195.02 84.2726 1194.27 85.9848 1192.75 87.409C1191.27 88.8332 1189.48 89.5454 1187.39 89.5454Z" fill="white"/>
<path d="M1220.48 129V171H1209.75V101.182H1220.11V112.091H1221.02C1222.66 108.545 1225.14 105.697 1228.48 103.545C1231.81 101.364 1236.11 100.273 1241.38 100.273C1246.11 100.273 1250.25 101.242 1253.79 103.182C1257.34 105.091 1260.1 108 1262.07 111.909C1264.04 115.788 1265.02 120.697 1265.02 126.636V171H1254.29V127.364C1254.29 121.879 1252.87 117.606 1250.02 114.545C1247.17 111.454 1243.26 109.909 1238.29 109.909C1234.87 109.909 1231.81 110.651 1229.11 112.136C1226.45 113.621 1224.34 115.788 1222.79 118.636C1221.25 121.485 1220.48 124.939 1220.48 129Z" fill="white"/>
<path d="M1310.24 198.636C1305.06 198.636 1300.61 197.97 1296.88 196.636C1293.15 195.333 1290.05 193.606 1287.56 191.454C1285.11 189.333 1283.15 187.061 1281.7 184.636L1290.24 178.636C1291.21 179.909 1292.44 181.364 1293.93 183C1295.41 184.667 1297.44 186.106 1300.02 187.318C1302.62 188.561 1306.03 189.182 1310.24 189.182C1315.88 189.182 1320.53 187.818 1324.2 185.091C1327.87 182.364 1329.7 178.091 1329.7 172.273V158.091H1328.79C1328 159.364 1326.88 160.939 1325.43 162.818C1324 164.667 1321.94 166.318 1319.24 167.773C1316.58 169.197 1312.97 169.909 1308.43 169.909C1302.79 169.909 1297.73 168.576 1293.24 165.909C1288.79 163.242 1285.26 159.364 1282.65 154.273C1280.08 149.182 1278.79 143 1278.79 135.727C1278.79 128.576 1280.05 122.348 1282.56 117.045C1285.08 111.712 1288.58 107.591 1293.06 104.682C1297.55 101.742 1302.73 100.273 1308.61 100.273C1313.15 100.273 1316.76 101.03 1319.43 102.545C1322.12 104.03 1324.18 105.727 1325.61 107.636C1327.06 109.515 1328.18 111.061 1328.97 112.273H1330.06V101.182H1340.43V173C1340.43 179 1339.06 183.879 1336.34 187.636C1333.64 191.424 1330 194.197 1325.43 195.954C1320.88 197.742 1315.82 198.636 1310.24 198.636ZM1309.88 160.273C1314.18 160.273 1317.82 159.288 1320.79 157.318C1323.76 155.348 1326.02 152.515 1327.56 148.818C1329.11 145.121 1329.88 140.697 1329.88 135.545C1329.88 130.515 1329.12 126.076 1327.61 122.227C1326.09 118.379 1323.85 115.364 1320.88 113.182C1317.91 111 1314.24 109.909 1309.88 109.909C1305.34 109.909 1301.55 111.061 1298.52 113.364C1295.52 115.667 1293.26 118.757 1291.74 122.636C1290.26 126.515 1289.52 130.818 1289.52 135.545C1289.52 140.394 1290.28 144.682 1291.79 148.409C1293.34 152.106 1295.61 155.015 1298.61 157.136C1301.64 159.227 1305.4 160.273 1309.88 160.273Z" fill="white"/>
</svg>
