<svg width="16" height="19" viewBox="0 0 16 19" fill="none" xmlns="http://www.w3.org/2000/svg">
<path d="M8.01015 9.19229C8.46451 9.19229 8.85003 9.03845 9.16672 8.73078C9.48361 8.42293 9.64205 8.05301 9.64205 7.62102C9.64205 7.18885 9.48023 6.82205 9.15657 6.52064C8.83311 6.21941 8.4442 6.06879 7.98985 6.06879C7.5355 6.06879 7.14997 6.22262 6.83328 6.53029C6.51639 6.83815 6.35795 7.20807 6.35795 7.64005C6.35795 8.07223 6.51978 8.43902 6.84343 8.74044C7.16689 9.04167 7.5558 9.19229 8.01015 9.19229ZM8 19C5.3516 16.8152 3.35622 14.7773 2.01385 12.8862C0.671283 10.9952 0 9.26382 0 7.69219C0 5.65216 0.726579 3.86012 2.17974 2.31607C3.6327 0.772024 5.56795 0 7.9855 0C10.403 0 12.3431 0.772024 13.8058 2.31607C15.2686 3.86012 16 5.65216 16 7.69219C16 9.26382 15.3336 10.991 14.0009 12.8738C12.6684 14.7568 10.6681 16.7989 8 19Z" fill="#1E2939"/>
</svg>
